<?xml version="1.0" encoding="UTF-8" standalone="no"?>
<!DOCTYPE svg PUBLIC "-//W3C//DTD SVG 1.1//EN" "http://www.w3.org/Graphics/SVG/1.1/DTD/svg11.dtd">
<svg version="1.1" xmlns="http://www.w3.org/2000/svg" xmlns:xlink="http://www.w3.org/1999/xlink" preserveAspectRatio="xMidYMid meet" viewBox="154.15625000000023 167.13232421874994 315.7187500000001 219.93017578125006" width="311.72" height="215.93"><defs><path d="M456.48 168.13C462.22 168.13 466.88 172.78 466.88 178.52C466.88 219.63 466.88 332.56 466.88 373.67C466.88 379.41 462.22 384.06 456.48 384.06C396.22 384.06 225.81 384.06 165.55 384.06C159.81 384.06 155.16 379.41 155.16 373.67C155.16 332.56 155.16 219.63 155.16 178.52C155.16 172.78 159.81 168.13 165.55 168.13C225.81 168.13 396.22 168.13 456.48 168.13Z" id="a39WQx4ejC"></path><clipPath id="clipa4cJXIDPRk"><use xlink:href="#a39WQx4ejC" opacity="1"></use></clipPath><path d="M425.96 197.77L426.33 197.8L426.7 197.86L427.07 197.92L427.43 198L427.78 198.1L428.13 198.21L428.47 198.33L428.8 198.46L429.13 198.61L429.45 198.77L429.77 198.94L430.08 199.12L430.37 199.31L430.67 199.52L430.95 199.73L431.22 199.96L431.49 200.2L431.74 200.44L431.99 200.7L432.23 200.96L432.45 201.24L432.67 201.52L432.87 201.81L433.07 202.11L433.25 202.42L433.42 202.73L433.58 203.06L433.73 203.38L433.86 203.72L433.98 204.06L434.09 204.41L434.18 204.76L434.27 205.12L434.33 205.48L434.38 205.85L434.42 206.23L434.45 206.6L434.45 206.99L434.45 316.24L377.69 257.46L377.26 257.03L376.81 256.62L376.35 256.23L375.87 255.86L375.39 255.51L374.89 255.19L374.39 254.88L373.87 254.6L373.35 254.34L372.82 254.1L372.28 253.89L371.74 253.69L371.19 253.52L370.63 253.37L370.07 253.24L369.51 253.13L368.94 253.04L368.37 252.98L367.8 252.93L367.23 252.91L366.66 252.91L366.08 252.94L365.51 252.98L364.94 253.05L364.38 253.14L363.81 253.25L363.25 253.38L362.7 253.53L362.15 253.71L361.6 253.91L361.06 254.13L360.53 254.37L360.01 254.63L359.49 254.92L358.98 255.23L358.49 255.56L358 255.91L357.53 256.28L357.06 256.68L356.61 257.1L285.76 325.52L267.83 306.95L267.54 306.66L267.23 306.39L266.92 306.12L266.61 305.88L266.28 305.64L265.95 305.43L265.61 305.22L265.26 305.03L264.91 304.86L264.56 304.7L264.2 304.55L263.83 304.42L263.46 304.31L263.09 304.21L262.71 304.12L262.34 304.05L261.96 303.99L261.58 303.94L261.19 303.92L260.81 303.9L260.42 303.9L260.04 303.92L259.66 303.95L259.28 303.99L258.9 304.05L258.52 304.13L258.14 304.21L257.77 304.32L257.4 304.44L257.03 304.57L256.67 304.72L256.32 304.88L255.96 305.05L255.62 305.25L255.28 305.45L254.95 305.67L254.62 305.91L254.3 306.16L253.99 306.43L253.69 306.71L206.26 352.51L205.97 352.8L205.69 353.1L205.43 353.41L205.18 353.73L204.95 354.06L204.73 354.39L204.53 354.73L204.34 355.07L204.16 355.42L204 355.78L203.86 356.14L203.73 356.51L203.61 356.88L203.51 357.25L203.42 357.62L203.37 357.89L192.92 357.89L192.54 357.88L192.16 357.86L191.79 357.82L191.42 357.77L191.06 357.7L190.7 357.62L190.35 357.53L190 357.42L189.66 357.3L189.32 357.16L188.99 357.02L188.67 356.86L188.36 356.69L188.05 356.5L187.75 356.31L187.46 356.11L187.18 355.89L186.9 355.66L186.64 355.43L186.38 355.18L186.14 354.93L185.9 354.66L185.67 354.39L185.46 354.1L185.25 353.81L185.06 353.51L184.88 353.21L184.7 352.89L184.55 352.57L184.4 352.24L184.26 351.91L184.14 351.56L184.04 351.22L183.94 350.86L183.86 350.5L183.79 350.14L183.74 349.77L183.7 349.4L183.68 349.02L183.67 348.64L183.67 206.99L183.68 206.6L183.7 206.23L183.74 205.85L183.79 205.48L183.86 205.12L183.94 204.76L184.04 204.41L184.14 204.06L184.26 203.72L184.4 203.38L184.55 203.06L184.7 202.73L184.88 202.42L185.06 202.11L185.25 201.81L185.46 201.52L185.67 201.24L185.9 200.96L186.14 200.7L186.38 200.44L186.64 200.2L186.9 199.96L187.18 199.73L187.46 199.52L187.75 199.31L188.05 199.12L188.36 198.94L188.67 198.77L188.99 198.61L189.32 198.46L189.66 198.33L190 198.21L190.35 198.1L190.7 198L191.06 197.92L191.42 197.86L191.79 197.8L192.16 197.77L192.54 197.74L192.92 197.73L425.2 197.73L425.58 197.74L425.96 197.77ZM230 221.78L228.71 222.05L227.45 222.41L226.24 222.87L225.07 223.42L223.95 224.05L222.89 224.77L221.89 225.56L220.96 226.43L220.09 227.36L219.3 228.36L218.58 229.42L217.95 230.54L217.4 231.7L216.94 232.92L216.58 234.18L216.31 235.47L216.15 236.8L216.09 238.16L216.15 239.52L216.31 240.86L216.58 242.15L216.94 243.41L217.4 244.62L217.95 245.79L218.58 246.91L219.3 247.97L220.09 248.97L220.96 249.9L221.89 250.77L222.89 251.56L223.95 252.28L225.07 252.91L226.24 253.46L227.45 253.92L228.71 254.28L230 254.55L231.33 254.71L232.7 254.77L234.06 254.71L235.39 254.55L236.68 254.28L237.94 253.92L239.15 253.46L240.32 252.91L241.44 252.28L242.5 251.56L243.5 250.77L244.43 249.9L245.3 248.97L246.09 247.97L246.81 246.91L247.44 245.79L247.99 244.62L248.45 243.41L248.81 242.15L249.08 240.86L249.24 239.52L249.3 238.16L249.24 236.8L249.08 235.47L248.81 234.18L248.45 232.92L247.99 231.7L247.44 230.54L246.81 229.42L246.09 228.36L245.3 227.36L244.43 226.43L243.5 225.56L242.5 224.77L241.44 224.05L240.32 223.42L239.15 222.87L237.94 222.41L236.68 222.05L235.39 221.78L234.06 221.62L232.7 221.56L231.33 221.62L230 221.78Z" id="a4I5KjJKNP"></path></defs><g><g><g clip-path="url(#clipa4cJXIDPRk)"><use xlink:href="#a39WQx4ejC" opacity="1" fill-opacity="0" stroke="#252525" stroke-width="28" stroke-opacity="0.87"></use></g></g><g><use xlink:href="#a4I5KjJKNP" opacity="1" fill="#252525" fill-opacity="0.87"></use></g></g></svg>