<?xml version="1.0" encoding="UTF-8" standalone="no"?>
<!DOCTYPE svg PUBLIC "-//W3C//DTD SVG 1.1//EN" "http://www.w3.org/Graphics/SVG/1.1/DTD/svg11.dtd">
<svg version="1.1" xmlns="http://www.w3.org/2000/svg" xmlns:xlink="http://www.w3.org/1999/xlink" preserveAspectRatio="xMidYMid meet" viewBox="40.05752370116564 41.687173770732336 441.70567807239166 400.8900627057217" width="437.71" height="396.89"><defs><path d="M346.63 92.19L349.56 92.46L352.49 92.85L355.43 93.36L358.37 93.98L361.32 94.71L364.23 95.56L367.08 96.5L369.88 97.55L372.61 98.69L375.28 99.92L377.88 101.24L380.41 102.65L382.87 104.14L385.26 105.71L387.58 107.37L389.83 109.09L391.99 110.89L394.08 112.77L396.09 114.7L398.02 116.71L399.86 118.77L401.62 120.9L403.29 123.08L404.88 125.32L406.37 127.6L407.77 129.94L409.08 132.32L410.29 134.75L411.4 137.21L412.42 139.71L413.34 142.25L414.15 144.81L414.48 146.04L417.36 146.53L420.31 147.15L423.25 147.88L426.16 148.73L429.02 149.68L431.81 150.72L434.54 151.86L437.21 153.09L439.81 154.41L442.34 155.82L444.81 157.31L447.2 158.89L449.52 160.54L451.76 162.27L453.93 164.07L456.02 165.94L458.03 167.88L459.95 169.88L461.8 171.95L463.56 174.07L465.23 176.26L466.81 178.49L468.3 180.78L469.7 183.11L471.01 185.49L472.22 187.92L473.34 190.38L474.35 192.88L475.27 195.42L476.08 197.99L476.79 200.59L477.39 203.21L477.89 205.86L478.28 208.52L478.55 211.21L478.71 213.91L478.76 216.63L478.7 219.35L478.51 222.08L478.21 224.82L477.78 227.56L477.23 230.29L476.56 233.02L475.76 235.72L474.86 238.37L473.85 240.95L472.74 243.46L471.52 245.92L470.21 248.31L468.8 250.63L467.3 252.88L465.71 255.06L464.04 257.17L462.28 259.21L460.44 261.18L458.52 263.06L456.52 264.87L454.46 266.61L452.32 268.26L450.12 269.82L447.85 271.31L445.52 272.71L443.14 274.02L440.69 275.25L438.2 276.38L435.66 277.43L433.07 278.38L430.44 279.24L427.76 280L425.05 280.66L422.3 281.23L419.52 281.7L416.72 282.06L413.88 282.32L411.02 282.48L408.14 282.53L405.25 282.47L402.33 282.3L399.41 282.03L396.48 281.64L396.47 281.64L379.99 342.68L379.59 344.04L379.14 345.38L378.65 346.68L378.1 347.96L377.51 349.2L376.87 350.41L376.18 351.59L375.46 352.73L374.69 353.84L373.88 354.92L373.04 355.96L372.15 356.96L371.23 357.93L370.28 358.85L369.29 359.74L368.27 360.59L367.22 361.4L366.14 362.16L365.03 362.89L363.9 363.57L362.74 364.21L361.56 364.8L360.35 365.35L359.13 365.85L357.88 366.3L356.62 366.71L355.33 367.07L354.04 367.38L352.73 367.64L351.4 367.84L350.07 368L348.72 368.11L347.36 368.16L346 368.15L344.63 368.1L343.26 367.98L341.88 367.82L340.5 367.59L339.13 367.31L337.75 366.96L244.69 341.85L243.33 341.45L241.99 341L240.69 340.5L239.41 339.95L238.17 339.36L236.96 338.72L235.78 338.04L234.64 337.31L233.53 336.55L232.45 335.74L231.41 334.89L230.41 334.01L229.44 333.09L228.51 332.13L227.63 331.15L226.78 330.13L225.97 329.08L225.2 328L224.48 326.89L223.8 325.75L223.16 324.6L222.57 323.41L222.02 322.21L221.52 320.98L221.07 319.73L220.66 318.47L220.3 317.19L219.99 315.89L219.73 314.58L219.52 313.26L219.37 311.92L219.26 310.57L219.21 309.22L219.21 307.86L219.27 306.49L219.38 305.12L219.55 303.74L219.78 302.36L220.06 300.98L220.41 299.6L236.88 238.56L236.87 238.56L234.14 237.42L231.48 236.19L228.88 234.86L226.34 233.46L223.88 231.96L221.49 230.39L219.17 228.74L216.93 227.01L214.76 225.21L212.67 223.34L210.66 221.4L208.73 219.4L206.89 217.33L205.13 215.2L203.46 213.02L201.88 210.79L200.38 208.5L198.98 206.16L197.68 203.78L196.46 201.36L195.35 198.89L194.33 196.39L193.42 193.86L192.6 191.29L191.9 188.69L191.29 186.07L190.8 183.42L190.41 180.75L190.14 178.07L189.97 175.37L189.92 172.65L189.99 169.93L190.18 167.2L190.48 164.46L190.91 161.72L191.46 158.99L192.13 156.25L192.92 153.55L193.83 150.91L194.84 148.33L195.95 145.81L197.16 143.36L198.47 140.97L199.88 138.65L201.38 136.4L202.97 134.21L204.65 132.1L206.41 130.06L208.25 128.1L210.17 126.21L212.16 124.4L214.23 122.67L216.37 121.02L218.57 119.45L220.84 117.97L223.17 116.57L225.55 115.25L227.99 114.03L230.49 112.89L233.03 111.85L235.62 110.9L238.25 110.04L240.93 109.28L243.64 108.61L246.38 108.05L249.16 107.58L251.97 107.22L254.81 106.96L257.66 106.8L260.54 106.75L263.44 106.81L266.35 106.97L269.28 107.25L272.21 107.64L275.15 108.14L278.09 108.76L281.04 109.5L283.95 110.34L286.81 111.29L289.55 112.31L290.45 111.43L292.44 109.62L294.51 107.88L296.65 106.23L298.85 104.67L301.12 103.18L303.44 101.78L305.83 100.47L308.27 99.24L310.76 98.11L313.31 97.06L315.9 96.11L318.53 95.25L321.2 94.49L323.92 93.83L326.66 93.26L329.44 92.79L332.25 92.43L335.08 92.17L337.94 92.01L340.82 91.96L343.72 92.02L346.63 92.19ZM361.89 272.41L361.81 272.42L361.72 272.43L361.64 272.45L361.56 272.48L361.48 272.51L361.41 272.54L361.33 272.57L361.26 272.61L361.18 272.66L361.12 272.7L361.05 272.75L360.98 272.81L360.92 272.87L360.86 272.93L360.81 272.99L360.75 273.06L360.71 273.13L360.66 273.2L360.62 273.28L360.58 273.36L360.54 273.44L360.51 273.52L338.32 341.26L338.3 341.34L338.28 341.43L338.26 341.51L338.25 341.6L338.24 341.69L338.24 341.77L338.24 341.86L338.25 341.94L338.26 342.03L338.28 342.11L338.3 342.19L338.32 342.27L338.35 342.35L338.38 342.43L338.42 342.5L338.46 342.58L338.5 342.65L338.55 342.72L338.6 342.78L338.65 342.85L338.71 342.91L338.77 342.97L338.83 343.03L338.9 343.08L338.97 343.13L339.05 343.17L339.12 343.21L339.2 343.25L339.28 343.29L339.37 343.32L339.45 343.34L339.54 343.36L339.63 343.38L339.71 343.39L339.8 343.4L339.88 343.4L339.97 343.4L340.05 343.39L340.14 343.38L340.22 343.36L340.3 343.34L340.38 343.32L340.46 343.29L340.54 343.26L340.61 343.22L340.69 343.18L340.76 343.14L340.83 343.09L340.9 343.04L340.96 342.99L341.02 342.93L341.08 342.87L341.14 342.81L341.19 342.74L341.24 342.67L341.28 342.59L341.33 342.52L341.36 342.44L341.4 342.36L341.43 342.27L363.62 274.54L363.65 274.45L363.67 274.37L363.68 274.28L363.7 274.2L363.7 274.11L363.7 274.02L363.7 273.94L363.69 273.85L363.68 273.77L363.67 273.69L363.65 273.61L363.62 273.53L363.59 273.45L363.56 273.37L363.53 273.29L363.49 273.22L363.44 273.15L363.4 273.08L363.35 273.01L363.29 272.95L363.23 272.89L363.17 272.83L363.11 272.77L363.04 272.72L362.97 272.67L362.9 272.62L362.82 272.58L362.74 272.54L362.66 272.51L362.58 272.48L362.49 272.45L362.4 272.43L362.32 272.42L362.23 272.41L362.15 272.4L362.06 272.4L361.97 272.4L361.89 272.41ZM316.24 261.9L316.16 261.92L316.07 261.93L315.99 261.95L315.91 261.98L315.83 262L315.75 262.03L315.68 262.07L315.6 262.11L315.53 262.15L315.46 262.2L315.4 262.25L315.33 262.3L315.27 262.36L315.21 262.42L315.16 262.49L315.1 262.55L315.05 262.62L315.01 262.69L314.97 262.77L314.93 262.85L314.89 262.93L314.86 263.01L314.84 263.1L295.94 331.82L295.92 331.91L295.9 332L295.89 332.08L295.88 332.17L295.88 332.26L295.88 332.34L295.89 332.43L295.9 332.51L295.92 332.6L295.94 332.68L295.96 332.76L295.99 332.84L296.02 332.91L296.06 332.99L296.1 333.06L296.14 333.14L296.19 333.2L296.24 333.27L296.29 333.34L296.35 333.4L296.41 333.46L296.47 333.51L296.54 333.57L296.61 333.61L296.68 333.66L296.75 333.7L296.83 333.74L296.91 333.78L297 333.81L297.08 333.83L297.17 333.85L297.26 333.87L297.34 333.88L297.43 333.89L297.52 333.89L297.6 333.89L297.69 333.88L297.77 333.87L297.86 333.86L297.94 333.84L298.02 333.81L298.1 333.78L298.17 333.75L298.25 333.72L298.32 333.68L298.4 333.63L298.47 333.59L298.53 333.54L298.6 333.48L298.66 333.43L298.72 333.37L298.77 333.3L298.83 333.23L298.88 333.17L298.92 333.09L298.96 333.02L299 332.94L299.04 332.86L299.07 332.78L299.09 332.69L317.99 263.96L318.01 263.88L318.03 263.79L318.04 263.7L318.05 263.62L318.05 263.53L318.05 263.44L318.04 263.36L318.03 263.27L318.01 263.19L317.99 263.11L317.97 263.03L317.94 262.95L317.91 262.87L317.87 262.8L317.83 262.72L317.79 262.65L317.74 262.58L317.69 262.51L317.64 262.45L317.58 262.39L317.52 262.33L317.46 262.27L317.39 262.22L317.32 262.17L317.25 262.13L317.17 262.08L317.1 262.05L317.02 262.01L316.93 261.98L316.85 261.95L316.76 261.93L316.67 261.92L316.58 261.91L316.5 261.9L316.41 261.9L316.33 261.9L316.24 261.9ZM272.54 251.54L272.45 251.55L272.37 251.57L272.29 251.58L272.21 251.61L272.13 251.63L272.05 251.67L271.97 251.7L271.9 251.74L271.83 251.78L271.76 251.83L271.69 251.88L271.62 251.93L271.56 251.99L271.5 252.05L271.45 252.11L271.39 252.18L271.34 252.24L271.3 252.32L271.25 252.39L271.22 252.47L271.18 252.55L271.15 252.63L271.12 252.71L271.1 252.8L255.03 322.24L255.01 322.33L255 322.42L254.99 322.5L254.99 322.59L254.99 322.68L254.99 322.76L255 322.85L255.02 322.93L255.04 323.01L255.06 323.09L255.09 323.17L255.12 323.25L255.15 323.33L255.19 323.4L255.23 323.47L255.28 323.54L255.33 323.61L255.38 323.68L255.44 323.74L255.5 323.8L255.56 323.85L255.63 323.91L255.7 323.96L255.77 324L255.84 324.05L255.92 324.09L256 324.12L256.08 324.15L256.16 324.18L256.25 324.2L256.34 324.22L256.43 324.23L256.51 324.24L256.6 324.24L256.69 324.24L256.77 324.24L256.86 324.23L256.94 324.21L257.02 324.19L257.11 324.17L257.19 324.14L257.26 324.11L257.34 324.08L257.41 324.04L257.49 324L257.56 323.95L257.62 323.9L257.69 323.85L257.75 323.79L257.81 323.73L257.87 323.67L257.92 323.6L257.97 323.53L258.02 323.46L258.06 323.39L258.1 323.31L258.13 323.23L258.16 323.15L258.19 323.06L258.21 322.98L274.29 253.54L274.3 253.45L274.32 253.36L274.32 253.27L274.33 253.19L274.33 253.1L274.32 253.02L274.31 252.93L274.3 252.85L274.28 252.76L274.25 252.68L274.23 252.6L274.2 252.53L274.16 252.45L274.12 252.38L274.08 252.3L274.03 252.23L273.98 252.17L273.93 252.1L273.87 252.04L273.81 251.98L273.75 251.92L273.69 251.87L273.62 251.82L273.55 251.77L273.47 251.73L273.39 251.69L273.31 251.66L273.23 251.63L273.15 251.6L273.06 251.58L272.97 251.56L272.89 251.55L272.8 251.54L272.71 251.53L272.62 251.54L272.54 251.54ZM430.25 174.09L432.39 176.22L434.44 178.4L436.41 180.63L438.28 182.9L440.07 185.21L441.76 187.55L443.36 189.93L444.87 192.34L446.29 194.77L447.61 197.23L448.83 199.71L449.96 202.2L451 204.71L451.93 207.23L452.77 209.76L453.5 212.3L454.14 214.84L454.68 217.38L455.11 219.91L455.44 222.44L455.67 224.96L455.79 227.46L455.81 229.95L455.73 232.43L455.53 234.88L455.23 237.3L454.82 239.7L454.3 242.07L453.67 244.4L452.93 246.7L452.79 247.08L453.53 246.03L454.55 244.43L455.47 242.78L456.31 241.09L457.06 239.38L457.73 237.62L458.3 235.84L458.8 234.03L459.2 232.19L459.53 230.33L459.76 228.45L459.92 226.55L459.99 224.64L459.99 222.71L459.9 220.77L459.73 218.81L459.48 216.86L459.15 214.89L458.74 212.93L458.25 210.96L457.69 209L457.05 207.04L456.33 205.09L455.54 203.14L454.67 201.21L453.73 199.29L452.71 197.39L451.63 195.51L450.46 193.65L449.23 191.81L447.93 190L446.55 188.21L445.11 186.46L443.59 184.74L442.01 183.05L440.36 181.4L438.64 179.79L436.85 178.22L435 176.7L433.08 175.22L431.12 173.81L429.13 172.47L427.12 171.21L427.1 171.2L428.02 172L430.25 174.09ZM253.35 127.53L251.13 127.67L248.93 127.85L246.75 128.09L244.61 128.38L242.5 128.72L240.43 129.11L238.39 129.54L236.38 130.02L234.42 130.54L232.5 131.11L230.62 131.72L228.79 132.37L227 133.06L225.26 133.8L223.57 134.57L221.93 135.37L220.35 136.22L218.82 137.1L217.35 138.01L215.94 138.96L214.59 139.94L213.3 140.95L212.07 141.99L210.91 143.05L209.82 144.15L208.8 145.27L207.85 146.42L206.97 147.59L206.17 148.79L205.45 150.01L204.8 151.25L204.24 152.51L203.75 153.79L203.35 155.09L203.04 156.41L202.81 157.74L202.68 159.08L202.64 159.99L202.75 159.72L203.48 158.09L204.32 156.5L205.26 154.93L206.3 153.39L207.43 151.88L208.66 150.4L209.99 148.95L211.4 147.54L212.9 146.17L214.49 144.83L216.16 143.53L217.91 142.27L219.74 141.05L221.65 139.88L223.63 138.74L225.68 137.66L227.8 136.62L229.99 135.63L232.25 134.68L234.56 133.79L236.94 132.95L239.38 132.17L241.87 131.44L244.41 130.76L247 130.15L249.65 129.59L252.34 129.09L255.07 128.66L257.85 128.29L260.66 127.98L263.51 127.74L264.66 127.67L264.64 127.67L262.41 127.53L260.16 127.45L257.88 127.42L255.61 127.45L253.35 127.53ZM341.5 106.63L339.23 106.82L336.95 107.08L334.66 107.41L332.37 107.83L330.06 108.32L327.76 108.89L325.45 109.54L323.14 110.27L320.86 111.07L318.62 111.94L316.44 112.88L316.42 112.88L317.61 112.59L320.59 111.95L323.56 111.41L326.53 110.97L329.48 110.63L332.41 110.39L335.33 110.24L338.22 110.19L341.09 110.23L343.92 110.37L346.73 110.6L349.5 110.92L352.23 111.32L354.93 111.82L357.58 112.41L360.18 113.08L362.74 113.84L365.24 114.68L367.69 115.61L370.08 116.62L372.4 117.71L374.67 118.88L376.87 120.13L378.99 121.46L381.05 122.87L383.03 124.35L384.93 125.91L386.75 127.54L388.48 129.25L390.13 131.03L391.69 132.88L393.15 134.8L393.38 135.13L392.94 133.93L392.21 132.17L391.38 130.47L390.48 128.82L389.5 127.22L388.44 125.68L387.3 124.19L386.1 122.75L384.82 121.37L383.48 120.04L382.08 118.77L380.6 117.55L379.07 116.4L377.48 115.3L375.84 114.27L374.14 113.29L372.39 112.38L370.59 111.53L368.74 110.74L366.85 110.02L364.92 109.36L362.94 108.77L360.93 108.24L358.89 107.78L356.8 107.39L354.69 107.07L352.55 106.82L350.38 106.64L348.19 106.53L345.98 106.49L343.75 106.53L341.5 106.63Z" id="dxUQpbyhh"></path><clipPath id="clipk2HEx8MvcM"><use xlink:href="#dxUQpbyhh" opacity="1"></use></clipPath><path d="M86.61 42.88L88.21 43.07L89.81 43.32L91.39 43.63L92.95 44.01L94.5 44.44L96.02 44.93L97.52 45.48L99 46.08L100.45 46.75L101.87 47.46L103.27 48.23L104.64 49.05L105.97 49.92L107.27 50.85L108.54 51.82L109.76 52.84L110.95 53.91L112.1 55.03L113.21 56.19L114.28 57.4L115.29 58.65L116.27 59.95L117.19 61.29L118.07 62.67L118.89 64.09L119.66 65.55L120.37 67.04L121.03 68.58L121.63 70.15L122.17 71.76L122.65 73.4L123.06 75.06L123.4 76.72L123.67 78.38L123.81 79.54L124.27 79.41L125.72 79.05L127.17 78.75L128.62 78.51L130.07 78.33L131.52 78.2L132.96 78.13L134.39 78.12L135.81 78.17L137.23 78.26L138.63 78.42L140.02 78.62L141.4 78.88L142.76 79.19L144.11 79.55L145.44 79.95L146.74 80.41L148.03 80.92L149.29 81.47L150.53 82.07L151.75 82.72L152.94 83.41L154.1 84.14L155.23 84.92L156.32 85.74L157.39 86.61L158.42 87.51L159.42 88.45L160.38 89.44L161.3 90.46L162.18 91.52L163.03 92.62L163.82 93.75L164.58 94.92L165.29 96.13L165.95 97.36L166.57 98.63L167.13 99.94L167.64 101.27L168.11 102.64L168.51 104.03L168.86 105.45L169.15 106.86L169.37 108.27L169.54 109.68L169.65 111.09L169.7 112.49L169.69 113.89L169.62 115.28L169.5 116.66L169.33 118.03L169.1 119.39L168.81 120.74L168.48 122.07L168.09 123.39L167.65 124.69L167.16 125.97L166.62 127.23L166.04 128.47L165.4 129.69L164.72 130.89L164 132.06L163.23 133.2L162.41 134.31L161.55 135.39L160.65 136.45L159.71 137.47L158.73 138.45L157.71 139.4L156.64 140.32L155.54 141.19L154.41 142.03L153.23 142.83L152.02 143.58L150.78 144.29L149.5 144.95L148.18 145.57L146.84 146.14L145.46 146.66L144.06 147.13L142.62 147.55L142.47 147.59L142.52 147.7L142.93 148.85L143.29 150.03L143.58 151.24L143.79 152.44L143.94 153.65L144.02 154.85L144.03 156.06L143.98 157.26L143.87 158.45L143.68 159.63L143.44 160.81L143.14 161.97L142.78 163.12L142.36 164.26L141.88 165.37L141.34 166.47L140.75 167.55L140.11 168.61L139.42 169.64L138.67 170.64L137.88 171.62L137.03 172.57L136.14 173.49L135.2 174.37L134.22 175.22L133.19 176.03L132.12 176.81L131.01 177.54L129.86 178.23L128.67 178.88L127.44 179.48L126.18 180.03L124.88 180.53L123.55 180.99L122.18 181.39L120.8 181.73L119.42 182L118.04 182.22L116.67 182.38L115.31 182.48L113.95 182.51L112.61 182.5L111.28 182.42L109.97 182.29L108.67 182.1L107.4 181.86L106.14 181.57L104.91 181.22L103.7 180.83L102.52 180.38L101.37 179.89L100.25 179.34L99.17 178.75L98.12 178.12L97.1 177.43L96.13 176.71L95.2 175.94L94.3 175.13L93.46 174.27L92.66 173.38L91.91 172.44L91.21 171.47L90.56 170.46L89.97 169.42L89.43 168.33L88.95 167.21L88.53 166.06L88.18 164.88L87.89 163.68L87.67 162.47L87.53 161.26L87.45 160.06L87.43 158.86L87.49 157.66L87.6 156.46L87.78 155.28L88.03 154.1L88.33 152.94L88.69 151.79L89.11 150.66L89.59 149.54L90.12 148.44L90.71 147.36L91.36 146.31L92.05 145.27L92.8 144.27L93.59 143.29L94.44 142.34L95.33 141.43L96.27 140.54L97.25 139.69L98.28 138.88L99.35 138.11L100.46 137.37L101.61 136.68L102.8 136.04L104.02 135.44L104.53 135.22L103.86 134.34L103.06 133.21L102.31 132.04L101.6 130.83L100.93 129.6L100.32 128.33L99.75 127.02L99.24 125.69L98.78 124.32L98.37 122.93L98.3 122.61L98.18 122.66L96.61 123.26L95 123.8L93.36 124.28L91.7 124.69L90.04 125.03L88.38 125.3L86.72 125.5L85.07 125.64L83.42 125.7L81.78 125.71L80.15 125.64L78.53 125.52L76.92 125.33L75.32 125.07L73.74 124.76L72.18 124.39L70.64 123.95L69.12 123.46L67.61 122.91L66.14 122.31L64.69 121.65L63.26 120.93L61.86 120.16L60.5 119.34L59.16 118.47L57.86 117.55L56.6 116.57L55.37 115.55L54.18 114.48L53.03 113.36L51.92 112.2L50.86 110.99L49.84 109.74L48.87 108.44L47.94 107.1L47.07 105.72L46.25 104.31L45.48 102.85L44.76 101.35L44.1 99.81L43.5 98.24L42.96 96.63L42.49 94.99L42.08 93.33L41.73 91.67L41.46 90.01L41.26 88.35L41.13 86.7L41.06 85.05L41.06 83.41L41.12 81.78L41.25 80.16L41.44 78.55L41.69 76.95L42 75.37L42.38 73.81L42.81 72.27L43.3 70.74L43.85 69.24L44.45 67.77L45.12 66.31L45.83 64.89L46.6 63.49L47.42 62.13L48.29 60.79L49.22 59.49L50.19 58.23L51.21 57L52.28 55.81L53.4 54.66L54.56 53.55L55.77 52.49L57.03 51.47L58.32 50.5L59.66 49.57L61.04 48.7L62.46 47.88L63.92 47.11L65.41 46.39L66.95 45.73L68.52 45.13L70.13 44.59L71.77 44.12L73.43 43.71L75.09 43.36L76.75 43.09L78.41 42.89L80.06 42.76L81.71 42.69L83.35 42.69L84.98 42.75L86.61 42.88Z" id="a3eLzPgrmh"></path><clipPath id="clipd4ppQgIdwy"><use xlink:href="#a3eLzPgrmh" opacity="1"></use></clipPath><path d="M174.76 150.13L175.19 150.39L175.61 150.67L176.02 150.96L176.42 151.27L176.81 151.59L177.18 151.93L177.54 152.28L177.89 152.64L178.22 153.02L178.54 153.42L178.85 153.82L179.14 154.24L179.41 154.67L179.67 155.12L179.91 155.57L180.14 156.04L180.34 156.51L180.53 157L180.7 157.5L180.85 158L180.98 158.52L181.09 159.04L181.18 159.58L181.25 160.11L181.3 160.65L181.32 161.18L181.33 161.71L181.31 162.23L181.27 162.75L181.21 163.27L181.13 163.78L181.03 164.28L180.91 164.78L180.77 165.27L180.62 165.76L180.44 166.24L180.25 166.71L180.04 167.17L179.81 167.62L179.57 168.06L179.31 168.49L179.03 168.91L178.74 169.32L178.43 169.72L178.11 170.11L177.77 170.48L177.42 170.84L177.05 171.19L176.67 171.53L176.28 171.85L175.87 172.15L175.46 172.44L175.02 172.72L174.58 172.98L174.13 173.22L173.66 173.44L173.19 173.65L173.09 173.68L173.21 174.07L173.43 174.95L173.62 175.85L173.78 176.77L183.21 240.47L186.67 241.58L190.36 242.94L194 244.43L197.57 246.06L201.07 247.82L204.49 249.71L207.84 251.73L211.1 253.88L214.29 256.15L217.38 258.53L220.38 261.04L223.28 263.65L226.09 266.38L228.79 269.22L231.38 272.17L233.86 275.21L236.23 278.36L238.48 281.6L240.6 284.94L242.6 288.37L244.47 291.89L246.21 295.5L247.81 299.19L249.27 302.96L250.58 306.81L251.75 310.73L252.76 314.73L253.62 318.8L254.32 322.93L254.85 327.09L255.2 331.23L255.39 335.35L255.41 339.44L255.27 343.5L254.97 347.54L254.51 351.53L253.89 355.49L253.12 359.4L252.2 363.26L251.13 367.07L249.92 370.83L248.57 374.53L247.08 378.16L245.45 381.73L243.69 385.23L241.8 388.65L239.78 392L237.63 395.27L235.36 398.45L232.98 401.54L230.47 404.54L227.85 407.44L225.12 410.25L222.29 412.95L219.34 415.54L216.3 418.02L213.15 420.39L209.91 422.64L206.57 424.76L203.14 426.76L199.62 428.63L196.01 430.37L192.32 431.97L188.55 433.43L184.7 434.74L180.78 435.91L176.78 436.92L172.71 437.78L168.58 438.48L164.42 439.01L160.28 439.37L156.16 439.56L152.07 439.58L148 439.44L143.97 439.13L139.98 438.67L136.02 438.05L132.11 437.28L128.25 436.36L124.44 435.3L120.68 434.09L116.98 432.73L113.35 431.24L109.78 429.61L106.28 427.85L102.85 425.96L99.51 423.94L96.24 421.79L93.06 419.53L89.97 417.14L86.97 414.63L84.06 412.02L81.26 409.29L78.56 406.45L75.97 403.51L73.48 400.46L71.12 397.31L68.87 394.07L66.74 390.73L64.74 387.3L62.87 383.78L61.14 380.17L59.54 376.48L58.08 372.71L56.76 368.86L55.6 364.94L54.58 360.94L53.73 356.88L53.03 352.74L52.5 348.58L52.14 344.44L51.95 340.32L51.93 336.23L52.07 332.17L52.38 328.13L52.84 324.14L53.45 320.18L54.22 316.27L55.14 312.41L56.21 308.6L57.42 304.84L58.77 301.14L60.27 297.51L61.89 293.94L63.66 290.44L65.55 287.02L67.57 283.67L69.71 280.4L71.98 277.22L74.37 274.13L76.87 271.13L79.49 268.23L82.22 265.42L85.06 262.72L88 260.13L91.05 257.65L94.2 255.28L97.18 253.21L87.74 189.51L87.62 188.59L87.55 187.67L87.5 186.76L87.5 186.36L87.4 186.35L86.89 186.29L86.38 186.21L85.87 186.11L85.37 186L84.88 185.86L84.4 185.7L83.92 185.53L83.45 185.34L82.99 185.13L82.54 184.9L82.1 184.65L81.67 184.39L81.24 184.12L80.83 183.82L80.44 183.52L80.05 183.19L79.67 182.86L79.31 182.5L78.96 182.14L78.63 181.76L78.31 181.36L78 180.96L77.71 180.54L77.44 180.11L77.18 179.67L76.94 179.21L76.72 178.75L76.51 178.27L76.32 177.78L76.15 177.29L76 176.78L75.87 176.26L75.76 175.74L75.67 175.2L75.6 174.67L75.56 174.13L75.53 173.6L75.53 173.07L75.55 172.55L75.59 172.03L75.64 171.51L75.72 171L75.82 170.5L75.94 170L76.08 169.51L76.24 169.02L76.41 168.55L76.6 168.08L76.81 167.62L77.04 167.16L77.28 166.72L77.54 166.29L77.82 165.87L78.11 165.46L78.42 165.06L78.74 164.67L79.08 164.3L79.43 163.94L79.66 163.72L80.97 163.7L82.8 163.65L84.69 163.58L86.64 163.49L88.66 163.39L90.73 163.26L92.85 163.12L95.03 162.96L97.26 162.79L99.54 162.59L101.87 162.38L104.24 162.15L106.65 161.9L109.1 161.63L111.59 161.35L114.12 161.05L116.68 160.73L119.28 160.39L121.9 160.04L124.55 159.66L127.22 159.27L129.9 158.87L132.54 158.46L135.16 158.04L137.74 157.61L140.28 157.17L142.79 156.73L145.25 156.28L147.68 155.82L150.06 155.36L152.39 154.89L154.68 154.42L156.92 153.95L159.11 153.47L161.24 152.99L163.31 152.51L165.33 152.03L167.29 151.55L169.18 151.06L171.01 150.58L172.78 150.1L174.03 149.74L174.31 149.88L174.76 150.13ZM127.57 348.37L126.23 348.54L124.89 348.76L123.59 349.05L122.31 349.39L121.05 349.78L119.82 350.23L118.63 350.73L117.46 351.27L116.32 351.87L115.22 352.51L114.15 353.19L113.12 353.92L112.12 354.69L111.16 355.5L110.24 356.35L109.36 357.23L108.52 358.15L107.72 359.11L106.97 360.09L106.26 361.11L105.59 362.16L104.98 363.23L104.41 364.33L103.89 365.46L103.42 366.61L103 367.78L102.63 368.97L102.32 370.18L102.06 371.41L101.86 372.65L101.72 373.9L101.64 375.17L101.61 376.45L101.65 377.74L101.75 379.04L101.91 380.34L102.13 381.63L102.41 382.9L102.75 384.15L103.15 385.36L103.59 386.55L104.1 387.71L104.65 388.84L105.25 389.94L105.9 391.01L106.59 392.04L107.33 393.04L108.12 394.01L108.94 394.93L109.8 395.82L110.71 396.67L111.65 397.48L112.62 398.25L113.63 398.97L114.67 399.66L115.74 400.29L116.84 400.88L117.97 401.43L119.12 401.93L120.3 402.37L121.5 402.77L122.72 403.12L123.96 403.41L125.22 403.65L126.49 403.83L127.78 403.96L129.09 404.03L130.4 404.05L131.73 404L133.06 403.9L134.4 403.73L135.73 403.5L137.04 403.21L138.32 402.87L139.58 402.48L140.8 402.03L142 401.54L143.17 400.99L144.3 400.4L145.41 399.76L146.47 399.07L147.51 398.34L148.5 397.57L149.46 396.76L150.38 395.92L151.27 395.03L152.11 394.11L152.9 393.16L153.66 392.17L154.37 391.15L155.03 390.1L155.65 389.03L156.22 387.93L156.74 386.8L157.21 385.65L157.63 384.48L157.99 383.29L158.31 382.08L158.56 380.86L158.76 379.62L158.91 378.36L158.99 377.09L159.02 375.81L158.98 374.52L158.88 373.23L158.72 371.92L158.5 370.63L158.22 369.36L157.88 368.12L157.48 366.9L157.03 365.71L156.53 364.55L155.98 363.42L155.38 362.32L154.73 361.25L154.04 360.22L153.3 359.22L152.51 358.26L151.69 357.33L150.82 356.44L149.92 355.59L148.98 354.78L148.01 354.02L147 353.29L145.96 352.61L144.89 351.97L143.79 351.38L142.66 350.83L141.51 350.34L140.33 349.89L139.13 349.49L137.91 349.15L136.67 348.85L135.41 348.61L134.13 348.43L132.84 348.3L131.54 348.23L130.23 348.22L128.9 348.26L127.57 348.37Z" id="c4tYAaPpsq"></path><clipPath id="clipailVYalrq"><use xlink:href="#c4tYAaPpsq" opacity="1"></use></clipPath></defs><g><g><use xlink:href="#dxUQpbyhh" opacity="1" fill="#f3f3f3" fill-opacity="0.95"></use><g clip-path="url(#clipk2HEx8MvcM)"><use xlink:href="#dxUQpbyhh" opacity="1" fill-opacity="0" stroke="#000000" stroke-width="2" stroke-opacity="1"></use></g></g><g><use xlink:href="#a3eLzPgrmh" opacity="1" fill="#21873a" fill-opacity="1"></use><g clip-path="url(#clipd4ppQgIdwy)"><use xlink:href="#a3eLzPgrmh" opacity="1" fill-opacity="0" stroke="#000000" stroke-width="2" stroke-opacity="1"></use></g></g><g><use xlink:href="#c4tYAaPpsq" opacity="1" fill="#381457" fill-opacity="1"></use><g clip-path="url(#clipailVYalrq)"><use xlink:href="#c4tYAaPpsq" opacity="1" fill-opacity="0" stroke="#000000" stroke-width="2" stroke-opacity="1"></use></g></g></g></svg>