<?xml version="1.0" encoding="UTF-8" standalone="no"?>
<!DOCTYPE svg PUBLIC "-//W3C//DTD SVG 1.1//EN" "http://www.w3.org/Graphics/SVG/1.1/DTD/svg11.dtd">
<svg version="1.1" xmlns="http://www.w3.org/2000/svg" xmlns:xlink="http://www.w3.org/1999/xlink" preserveAspectRatio="xMidYMid meet" viewBox="0 0 640 640" width="640" height="640">
   <defs>
      <path d="M440.91 187.04L444.18 187.35L447.45 187.78L450.73 188.34L454.02 189.04L457.3 189.86L460.56 190.8L463.74 191.86L466.86 193.02L469.91 194.29L472.89 195.67L475.79 197.14L478.62 198.71L481.37 200.38L484.04 202.14L486.62 203.98L489.13 205.91L491.55 207.92L493.88 210.01L496.12 212.17L498.27 214.41L500.33 216.72L502.3 219.09L504.16 221.52L505.93 224.02L507.6 226.57L509.16 229.18L510.62 231.84L511.97 234.54L513.22 237.29L514.35 240.09L515.37 242.92L516.28 245.78L516.65 247.15L519.87 247.7L523.15 248.39L526.44 249.21L529.69 250.16L532.88 251.21L536 252.38L539.05 253.65L542.02 255.02L544.93 256.5L547.75 258.07L550.5 259.74L553.17 261.49L555.76 263.34L558.26 265.27L560.68 267.28L563.02 269.36L565.26 271.53L567.41 273.77L569.47 276.07L571.43 278.44L573.3 280.88L575.06 283.38L576.73 285.93L578.29 288.54L579.75 291.19L581.11 293.9L582.35 296.65L583.49 299.44L584.51 302.27L585.41 305.14L586.21 308.04L586.88 310.97L587.43 313.92L587.86 316.9L588.17 319.9L588.35 322.92L588.41 325.95L588.33 328.99L588.12 332.04L587.78 335.09L587.31 338.15L586.69 341.2L585.94 344.25L585.06 347.26L584.05 350.21L582.92 353.09L581.68 355.9L580.33 358.64L578.86 361.31L577.29 363.9L575.62 366.41L573.84 368.85L571.97 371.21L570 373.48L567.95 375.67L565.81 377.78L563.58 379.8L561.27 381.74L558.89 383.58L556.43 385.33L553.9 386.99L551.3 388.55L548.64 390.01L545.91 391.38L543.13 392.65L540.29 393.82L537.4 394.88L534.46 395.84L531.48 396.69L528.45 397.43L525.38 398.06L522.28 398.58L519.15 398.99L515.98 399.28L512.79 399.45L509.58 399.51L506.34 399.44L503.09 399.26L499.83 398.95L496.55 398.51L496.54 398.51L478.15 466.65L477.71 468.17L477.21 469.66L476.65 471.12L476.04 472.54L475.38 473.93L474.66 475.28L473.9 476.6L473.09 477.88L472.23 479.12L471.33 480.32L470.39 481.48L469.4 482.6L468.37 483.68L467.31 484.71L466.21 485.7L465.07 486.65L463.89 487.55L462.69 488.4L461.45 489.21L460.19 489.97L458.89 490.68L457.57 491.35L456.23 491.96L454.86 492.52L453.47 493.02L452.06 493.48L450.63 493.88L449.18 494.22L447.71 494.51L446.24 494.75L444.75 494.92L443.24 495.04L441.73 495.09L440.21 495.09L438.68 495.03L437.15 494.9L435.61 494.71L434.07 494.46L432.53 494.14L430.99 493.76L327.12 465.72L325.6 465.28L324.11 464.78L322.65 464.22L321.23 463.61L319.84 462.95L318.49 462.24L317.17 461.47L315.9 460.66L314.66 459.81L313.46 458.9L312.29 457.96L311.18 456.97L310.1 455.95L309.06 454.88L308.07 453.78L307.12 452.64L306.22 451.47L305.37 450.26L304.56 449.03L303.8 447.76L303.09 446.47L302.43 445.15L301.82 443.8L301.26 442.43L300.75 441.04L300.29 439.63L299.89 438.2L299.55 436.75L299.26 435.29L299.03 433.81L298.85 432.32L298.74 430.82L298.68 429.3L298.68 427.78L298.75 426.26L298.87 424.72L299.06 423.19L299.31 421.65L299.63 420.11L300.01 418.57L318.4 350.43L318.39 350.43L315.35 349.15L312.37 347.78L309.47 346.3L306.64 344.73L303.89 343.07L301.22 341.31L298.63 339.47L296.13 337.54L293.71 335.53L291.38 333.44L289.13 331.27L286.98 329.04L284.92 326.73L282.96 324.36L281.1 321.92L279.33 319.43L277.66 316.87L276.1 314.27L274.64 311.61L273.29 308.9L272.04 306.15L270.91 303.36L269.89 300.53L268.98 297.66L268.19 294.76L267.51 291.83L266.96 288.88L266.53 285.9L266.22 282.9L266.04 279.89L265.99 276.86L266.06 273.82L266.27 270.77L266.61 267.71L267.08 264.66L267.7 261.6L268.45 258.55L269.33 255.54L270.34 252.59L271.47 249.71L272.71 246.9L274.07 244.16L275.53 241.49L277.1 238.9L278.78 236.39L280.55 233.95L282.42 231.6L284.39 229.32L286.44 227.13L288.59 225.02L290.81 223L293.12 221.07L295.5 219.22L297.96 217.47L300.49 215.82L303.09 214.25L305.76 212.79L308.48 211.42L311.26 210.15L314.1 208.99L316.99 207.92L319.93 206.97L322.92 206.12L325.94 205.37L329.01 204.74L332.11 204.22L335.25 203.82L338.41 203.52L341.6 203.35L344.82 203.29L348.05 203.36L351.3 203.54L354.56 203.85L357.84 204.29L361.12 204.85L364.41 205.54L367.69 206.36L370.95 207.31L374.13 208.36L377.19 209.51L378.2 208.51L380.42 206.49L382.73 204.56L385.12 202.72L387.57 200.97L390.11 199.31L392.7 197.75L395.37 196.28L398.09 194.91L400.88 193.65L403.71 192.48L406.6 191.42L409.54 190.46L412.53 189.61L415.55 188.87L418.62 188.24L421.72 187.72L424.86 187.31L428.02 187.02L431.21 186.84L434.43 186.79L437.66 186.85L440.91 187.04Z" id="a6tyb15qEV"></path>
      <path d="M347.68 226.49L350.17 226.64L350.19 226.64L348.91 226.72L345.73 226.99L342.59 227.33L339.49 227.75L336.44 228.23L333.43 228.79L330.48 229.41L327.59 230.1L324.75 230.85L321.97 231.67L319.25 232.54L316.6 233.48L314.01 234.48L311.5 235.53L309.05 236.64L306.68 237.8L304.39 239.01L302.18 240.27L300.05 241.58L298.01 242.94L296.05 244.35L294.19 245.8L292.42 247.29L290.74 248.83L289.16 250.4L287.69 252.02L286.31 253.67L285.04 255.35L283.88 257.07L282.84 258.82L281.9 260.61L281.08 262.42L280.97 262.73L281 261.71L281.15 260.21L281.41 258.72L281.76 257.25L282.2 255.81L282.74 254.38L283.37 252.97L284.1 251.58L284.9 250.22L285.8 248.89L286.78 247.58L287.84 246.3L288.98 245.04L290.2 243.82L291.49 242.63L292.86 241.47L294.29 240.34L295.8 239.25L297.38 238.19L299.02 237.17L300.73 236.19L302.5 235.25L304.33 234.34L306.21 233.48L308.15 232.67L310.15 231.89L312.2 231.17L314.29 230.49L316.44 229.85L318.63 229.27L320.86 228.73L323.14 228.25L325.46 227.82L327.81 227.44L330.2 227.12L332.63 226.85L335.09 226.64L337.57 226.49L340.09 226.4L342.63 226.37L345.17 226.4L347.68 226.49Z" id="b6yNACUbK"></path>
      <path d="M533.78 276.65L536 278.15L538.2 279.73L540.34 281.38L542.4 283.08L544.4 284.83L546.32 286.63L548.16 288.47L549.93 290.35L551.62 292.27L553.23 294.23L554.77 296.22L556.22 298.25L557.6 300.3L558.89 302.38L560.11 304.48L561.24 306.6L562.29 308.74L563.26 310.89L564.15 313.06L564.95 315.24L565.66 317.43L566.29 319.62L566.83 321.82L567.29 324.01L567.66 326.2L567.94 328.39L568.13 330.57L568.23 332.73L568.24 334.89L568.15 337.03L567.98 339.15L567.71 341.25L567.35 343.32L566.9 345.37L566.35 347.39L565.7 349.38L564.96 351.34L564.12 353.26L563.19 355.14L562.15 356.98L561.02 358.77L560.2 359.94L560.35 359.51L561.18 356.95L561.88 354.34L562.46 351.7L562.92 349.02L563.26 346.32L563.47 343.58L563.57 340.82L563.55 338.04L563.41 335.24L563.16 332.43L562.79 329.61L562.3 326.78L561.7 323.95L560.99 321.12L560.17 318.28L559.24 315.46L558.19 312.65L557.04 309.84L555.78 307.06L554.41 304.29L552.94 301.55L551.36 298.83L549.67 296.15L547.88 293.49L545.99 290.88L544 288.3L541.91 285.77L539.71 283.28L537.42 280.84L535.03 278.46L532.54 276.13L531.52 275.24L531.54 275.25L533.78 276.65Z" id="apMLQJDah"></path>
      <path d="M445.88 202.39L448.3 202.59L450.69 202.87L453.05 203.23L455.37 203.67L457.66 204.18L459.9 204.77L462.11 205.43L464.27 206.16L466.38 206.97L468.44 207.85L470.45 208.8L472.4 209.82L474.3 210.91L476.13 212.06L477.91 213.29L479.62 214.57L481.26 215.93L482.83 217.35L484.33 218.83L485.75 220.37L487.1 221.98L488.36 223.64L489.54 225.37L490.64 227.15L491.65 228.99L492.57 230.89L493.39 232.85L493.88 234.19L493.62 233.82L491.99 231.68L490.25 229.61L488.41 227.63L486.48 225.72L484.45 223.9L482.32 222.16L480.11 220.51L477.82 218.93L475.44 217.45L472.99 216.05L470.46 214.75L467.86 213.53L465.2 212.4L462.47 211.37L459.67 210.43L456.82 209.58L453.91 208.83L450.96 208.17L447.95 207.62L444.9 207.16L441.8 206.81L438.67 206.55L435.5 206.4L432.3 206.35L429.08 206.41L425.82 206.58L422.55 206.85L419.25 207.23L415.95 207.72L412.62 208.32L409.29 209.03L407.97 209.36L407.99 209.35L410.43 208.31L412.92 207.34L415.47 206.44L418.05 205.63L420.63 204.9L423.2 204.27L425.77 203.72L428.34 203.26L430.89 202.88L433.43 202.59L435.96 202.38L438.47 202.26L440.97 202.22L443.44 202.26L445.88 202.39Z" id="b2kOlh6k0H"></path>
      <path d="M459.49 388.29C460.45 388.6 460.97 389.64 460.66 390.59C455.59 406.06 440.96 450.73 435.89 466.2C435.57 467.16 434.54 467.68 433.58 467.37C433.24 467.25 433.93 467.48 433.58 467.37C432.63 467.05 432.1 466.02 432.42 465.06C437.49 449.6 452.12 404.93 457.19 389.46C457.5 388.5 458.54 387.98 459.49 388.29C459.84 388.4 459.15 388.18 459.49 388.29Z" id="c3beMC9jlK"></path>
      <path d="M408.45 376.54C409.42 376.81 409.99 377.82 409.72 378.79C405.41 394.48 392.94 439.81 388.63 455.5C388.36 456.47 387.36 457.05 386.38 456.78C386.03 456.68 386.74 456.87 386.38 456.78C385.41 456.51 384.84 455.51 385.11 454.53C389.42 438.84 401.89 393.51 406.2 377.82C406.47 376.85 407.47 376.28 408.45 376.54C408.8 376.64 408.09 376.45 408.45 376.54Z" id="beAOYSmbP"></path>
      <path d="M359.57 364.96C360.55 365.19 361.16 366.17 360.94 367.15C357.27 383.01 346.67 428.8 343 444.66C342.77 445.64 341.79 446.25 340.81 446.03C340.45 445.95 341.16 446.11 340.81 446.03C339.82 445.8 339.21 444.82 339.44 443.84C343.11 427.98 353.71 382.18 357.38 366.33C357.61 365.34 358.59 364.73 359.57 364.96C359.93 365.04 359.21 364.88 359.57 364.96Z" id="alnPv5xI2"></path>
      <path d="M141.28 80.59L143.08 80.8L144.86 81.08L146.62 81.43L148.36 81.85L150.09 82.33L151.79 82.88L153.46 83.49L155.11 84.17L156.73 84.9L158.32 85.7L159.88 86.56L161.41 87.48L162.89 88.45L164.35 89.48L165.76 90.57L167.13 91.71L168.46 92.9L169.74 94.15L170.98 95.45L172.17 96.8L173.3 98.2L174.39 99.64L175.42 101.14L176.4 102.68L177.32 104.26L178.17 105.89L178.97 107.56L179.71 109.28L180.37 111.03L180.98 112.83L181.51 114.66L181.97 116.51L182.35 118.37L182.65 120.22L182.81 121.52L183.32 121.37L184.94 120.97L186.56 120.63L188.18 120.36L189.8 120.16L191.41 120.02L193.02 119.94L194.62 119.93L196.21 119.98L197.79 120.09L199.36 120.26L200.91 120.49L202.45 120.77L203.97 121.12L205.47 121.52L206.95 121.97L208.41 122.48L209.85 123.05L211.26 123.67L212.64 124.34L214 125.06L215.32 125.83L216.62 126.65L217.88 127.52L219.1 128.44L220.29 129.4L221.45 130.41L222.56 131.46L223.63 132.56L224.66 133.7L225.65 134.89L226.58 136.11L227.48 137.38L228.32 138.68L229.11 140.03L229.85 141.41L230.54 142.83L231.17 144.28L231.74 145.77L232.26 147.3L232.71 148.85L233.1 150.43L233.42 152.01L233.67 153.58L233.86 155.16L233.98 156.73L234.03 158.29L234.02 159.85L233.95 161.41L233.81 162.95L233.62 164.48L233.36 166L233.04 167.5L232.67 168.99L232.24 170.46L231.75 171.91L231.2 173.34L230.6 174.75L229.95 176.14L229.24 177.5L228.48 178.83L227.67 180.13L226.81 181.41L225.9 182.65L224.94 183.86L223.94 185.03L222.88 186.17L221.79 187.27L220.65 188.34L219.46 189.36L218.23 190.33L216.96 191.27L215.65 192.16L214.3 193L212.91 193.79L211.48 194.53L210.02 195.22L208.52 195.86L206.98 196.44L205.41 196.96L203.81 197.43L203.63 197.47L203.8 197.87L204.2 199.02L204.55 200.2L204.84 201.4L205.07 202.6L205.24 203.8L205.34 205L205.39 206.2L205.37 207.4L205.3 208.59L205.17 209.77L204.99 210.95L204.75 212.12L204.46 213.28L204.11 214.43L203.71 215.57L203.26 216.69L202.76 217.79L202.21 218.88L201.61 219.95L200.97 221L200.28 222.02L199.54 223.03L198.76 224.01L197.93 224.96L197.06 225.89L196.15 226.79L195.21 227.65L194.22 228.49L193.19 229.29L192.12 230.06L191.02 230.8L189.88 231.49L188.71 232.15L187.5 232.77L186.26 233.34L184.99 233.87L183.68 234.36L182.35 234.8L180.99 235.2L179.61 235.54L178.24 235.83L176.87 236.06L175.5 236.24L174.14 236.36L172.78 236.44L171.44 236.46L170.11 236.43L168.78 236.35L167.48 236.22L166.18 236.04L164.91 235.82L163.65 235.54L162.41 235.22L161.2 234.86L160.01 234.45L158.84 233.99L157.7 233.49L156.58 232.95L155.5 232.37L154.44 231.75L153.42 231.08L152.43 230.38L151.48 229.63L150.57 228.85L149.69 228.03L148.85 227.18L148.06 226.29L147.31 225.36L146.6 224.4L145.94 223.41L145.33 222.38L144.76 221.32L144.25 220.23L143.79 219.11L143.39 217.95L143.04 216.77L142.75 215.58L142.52 214.38L142.35 213.17L142.25 211.97L142.2 210.77L142.22 209.58L142.29 208.39L142.42 207.2L142.6 206.02L142.84 204.85L143.13 203.69L143.48 202.54L143.88 201.41L144.33 200.29L144.83 199.18L145.38 198.09L145.98 197.03L146.62 195.98L147.31 194.95L148.05 193.95L148.83 192.97L149.66 192.01L150.53 191.09L151.43 190.19L152.38 189.32L153.37 188.48L154.4 187.68L155.47 186.91L156.57 186.18L157.71 185.48L158.88 184.83L160.09 184.21L161.28 183.66L160.54 182.68L159.65 181.42L158.81 180.11L158.01 178.77L157.27 177.39L156.59 175.97L155.96 174.51L155.38 173.02L154.87 171.5L154.41 169.94L154.33 169.59L154.2 169.64L152.45 170.31L150.66 170.92L148.82 171.45L146.97 171.91L145.12 172.29L143.26 172.59L141.41 172.82L139.57 172.97L137.73 173.04L135.89 173.04L134.07 172.97L132.26 172.83L130.47 172.62L128.69 172.34L126.92 171.99L125.18 171.57L123.46 171.09L121.76 170.54L120.08 169.93L118.43 169.25L116.81 168.51L115.22 167.72L113.66 166.86L112.14 165.94L110.65 164.97L109.2 163.94L107.78 162.85L106.41 161.71L105.08 160.51L103.8 159.27L102.56 157.97L101.38 156.62L100.24 155.22L99.15 153.77L98.12 152.28L97.15 150.74L96.23 149.16L95.37 147.53L94.57 145.86L93.84 144.14L93.17 142.39L92.57 140.59L92.03 138.76L91.57 136.91L91.19 135.05L90.89 133.2L90.66 131.35L90.51 129.5L90.44 127.66L90.44 125.83L90.51 124.01L90.65 122.2L90.86 120.4L91.14 118.62L91.49 116.86L91.91 115.12L92.39 113.39L92.94 111.69L93.55 110.02L94.23 108.37L94.97 106.75L95.76 105.16L96.62 103.6L97.54 102.07L98.51 100.59L99.54 99.13L100.63 97.72L101.77 96.35L102.97 95.02L104.21 93.74L105.51 92.5L106.86 91.31L108.26 90.18L109.71 89.09L111.2 88.06L112.74 87.08L114.32 86.17L115.95 85.31L117.62 84.51L119.34 83.77L121.09 83.11L122.89 82.5L124.72 81.97L126.57 81.51L128.43 81.13L130.28 80.83L132.13 80.6L133.98 80.45L135.82 80.38L137.65 80.37L139.47 80.44L141.28 80.59Z" id="a7bTZANyJ"></path>
      <path d="M239.68 201.09L240.16 201.38L240.63 201.69L241.09 202.01L241.54 202.36L241.97 202.72L242.39 203.09L242.79 203.49L243.18 203.9L243.55 204.32L243.91 204.76L244.25 205.21L244.57 205.68L244.88 206.16L245.17 206.66L245.44 207.16L245.69 207.68L245.92 208.21L246.13 208.76L246.32 209.31L246.48 209.88L246.63 210.45L246.75 211.04L246.85 211.63L246.93 212.23L246.98 212.83L247.01 213.42L247.01 214.01L246.99 214.6L246.95 215.18L246.88 215.76L246.79 216.33L246.68 216.89L246.55 217.45L246.4 218L246.22 218.54L246.03 219.07L245.81 219.59L245.58 220.11L245.33 220.61L245.05 221.1L244.76 221.59L244.45 222.06L244.13 222.51L243.78 222.96L243.42 223.39L243.04 223.81L242.65 224.21L242.24 224.6L241.82 224.98L241.38 225.33L240.93 225.67L240.46 226L239.98 226.3L239.48 226.59L238.98 226.86L238.46 227.11L237.93 227.34L237.82 227.38L237.95 227.81L238.2 228.8L238.41 229.8L238.59 230.82L249.12 301.93L252.97 303.18L257.1 304.69L261.16 306.35L265.14 308.17L269.05 310.14L272.87 312.25L276.61 314.5L280.25 316.9L283.8 319.43L287.26 322.1L290.6 324.89L293.85 327.81L296.98 330.86L299.99 334.03L302.88 337.31L305.65 340.71L308.3 344.23L310.81 347.85L313.18 351.58L315.41 355.4L317.5 359.33L319.44 363.36L321.22 367.48L322.85 371.69L324.32 375.98L325.62 380.36L326.75 384.83L327.71 389.36L328.49 393.98L329.08 398.62L329.48 403.24L329.69 407.84L329.71 412.41L329.56 416.95L329.22 421.45L328.7 425.91L328.01 430.32L327.16 434.69L326.13 439L324.94 443.25L323.59 447.45L322.07 451.58L320.41 455.63L318.59 459.62L316.63 463.52L314.51 467.35L312.26 471.08L309.86 474.73L307.33 478.28L304.67 481.73L301.87 485.08L298.95 488.32L295.9 491.45L292.74 494.47L289.45 497.36L286.05 500.13L282.54 502.77L278.91 505.28L275.19 507.65L271.36 509.89L267.43 511.97L263.4 513.91L259.28 515.7L255.08 517.33L250.78 518.79L246.4 520.1L241.94 521.23L237.4 522.18L232.78 522.96L228.14 523.56L223.52 523.95L218.92 524.17L214.35 524.19L209.82 524.03L205.32 523.69L200.86 523.18L196.44 522.49L192.08 521.63L187.76 520.6L183.51 519.41L179.31 518.06L175.19 516.55L171.13 514.88L167.15 513.07L163.24 511.1L159.42 508.99L155.68 506.73L152.03 504.34L148.48 501.81L145.03 499.14L141.68 496.35L138.44 493.42L135.31 490.38L132.3 487.21L129.4 483.92L126.63 480.52L123.99 477.01L121.48 473.39L119.11 469.66L116.88 465.83L114.79 461.9L112.85 457.88L111.06 453.76L109.44 449.55L107.97 445.25L106.67 440.87L105.54 436.41L104.58 431.87L103.8 427.26L103.21 422.62L102.81 418L102.6 413.4L102.57 408.83L102.73 404.29L103.07 399.79L103.58 395.33L104.27 390.92L105.13 386.55L106.16 382.24L107.35 377.98L108.7 373.79L110.21 369.66L111.88 365.6L113.7 361.62L115.66 357.71L117.77 353.89L120.03 350.16L122.42 346.51L124.96 342.96L127.62 339.51L130.42 336.16L133.34 332.92L136.38 329.79L139.55 326.77L142.84 323.88L146.24 321.11L149.75 318.47L153.08 316.16L142.55 245.05L142.42 244.02L142.33 243L142.28 241.98L142.28 241.53L142.17 241.52L141.59 241.46L141.02 241.37L140.46 241.26L139.91 241.13L139.36 240.97L138.81 240.8L138.28 240.6L137.76 240.39L137.24 240.15L136.74 239.9L136.25 239.63L135.77 239.34L135.3 239.03L134.84 238.7L134.39 238.36L133.96 238L133.54 237.62L133.14 237.23L132.75 236.82L132.38 236.39L132.02 235.96L131.68 235.5L131.35 235.03L131.05 234.55L130.76 234.06L130.49 233.55L130.24 233.03L130.01 232.5L129.8 231.96L129.61 231.4L129.44 230.84L129.3 230.26L129.17 229.68L129.07 229.08L129 228.48L128.95 227.88L128.92 227.29L128.91 226.7L128.93 226.11L128.98 225.53L129.04 224.96L129.13 224.39L129.24 223.83L129.38 223.27L129.53 222.72L129.7 222.18L129.9 221.65L130.11 221.12L130.35 220.61L130.6 220.1L130.87 219.61L131.17 219.13L131.47 218.66L131.8 218.2L132.14 217.76L132.51 217.32L132.88 216.91L133.28 216.5L133.53 216.26L134.99 216.23L137.03 216.18L139.14 216.1L141.32 216L143.57 215.89L145.88 215.75L148.25 215.59L150.69 215.41L153.17 215.22L155.72 215L158.31 214.76L160.96 214.5L163.65 214.23L166.39 213.93L169.17 213.61L171.99 213.28L174.85 212.92L177.75 212.54L180.68 212.15L183.63 211.73L186.62 211.3L189.61 210.85L192.56 210.39L195.47 209.92L198.35 209.44L201.19 208.95L203.99 208.46L206.75 207.95L209.45 207.44L212.11 206.93L214.72 206.41L217.27 205.88L219.77 205.35L222.21 204.82L224.59 204.29L226.91 203.75L229.16 203.21L231.34 202.67L233.46 202.13L235.5 201.59L237.47 201.05L238.87 200.66L239.19 200.81L239.68 201.09ZM188.19 422.28L186.85 422.39L185.51 422.56L184.17 422.79L182.86 423.07L181.57 423.39L180.3 423.77L179.06 424.19L177.84 424.66L176.65 425.18L175.49 425.73L174.36 426.34L173.25 426.98L172.18 427.66L171.14 428.38L170.13 429.14L169.16 429.94L168.21 430.77L167.31 431.63L166.44 432.53L165.6 433.46L164.81 434.42L164.05 435.41L163.34 436.42L162.66 437.47L162.03 438.54L161.44 439.63L160.89 440.74L160.39 441.88L159.93 443.04L159.52 444.21L159.16 445.41L158.85 446.62L158.58 447.85L158.37 449.09L158.21 450.34L158.1 451.61L158.04 452.88L158.03 454.17L158.09 455.46L158.19 456.76L158.36 458.06L158.58 459.36L158.85 460.64L159.18 461.89L159.55 463.12L159.98 464.32L160.45 465.5L160.97 466.65L161.54 467.78L162.14 468.88L162.8 469.94L163.49 470.98L164.22 471.99L164.99 472.97L165.8 473.91L166.65 474.82L167.53 475.69L168.45 476.53L169.4 477.33L170.38 478.1L171.39 478.82L172.43 479.51L173.49 480.16L174.58 480.77L175.7 481.33L176.84 481.85L178.01 482.33L179.2 482.77L180.4 483.16L181.63 483.5L182.87 483.79L184.13 484.04L185.4 484.24L186.69 484.39L187.99 484.48L189.3 484.53L190.62 484.52L191.95 484.46L193.29 484.34L194.63 484.17L195.97 483.95L197.28 483.67L198.57 483.34L199.84 482.97L201.08 482.54L202.3 482.07L203.49 481.56L204.65 481L205.78 480.4L206.88 479.76L207.96 479.07L209 478.35L210.01 477.59L210.98 476.8L211.93 475.97L212.83 475.1L213.7 474.2L214.54 473.28L215.33 472.32L216.09 471.33L216.8 470.31L217.48 469.27L218.11 468.2L218.7 467.11L219.25 465.99L219.75 464.86L220.21 463.7L220.62 462.52L220.98 461.33L221.29 460.12L221.56 458.89L221.77 457.65L221.93 456.4L222.04 455.13L222.1 453.85L222.1 452.57L222.05 451.28L221.94 449.98L221.78 448.67L221.56 447.37L221.29 446.1L220.96 444.85L220.59 443.62L220.16 442.41L219.69 441.23L219.17 440.08L218.6 438.96L218 437.86L217.34 436.79L216.65 435.75L215.92 434.75L215.15 433.77L214.34 432.83L213.49 431.92L212.61 431.04L211.69 430.21L210.74 429.4L209.76 428.64L208.75 427.91L207.71 427.22L206.65 426.58L205.56 425.97L204.44 425.4L203.29 424.88L202.13 424.4L200.94 423.97L199.74 423.58L198.51 423.24L197.27 422.94L196.01 422.69L194.74 422.5L193.45 422.35L192.15 422.25L190.84 422.21L189.52 422.21L188.19 422.28Z" id="b7bsVwq7R"></path>
   </defs>
   <g>
      <g>
         <g>
            <g>
               <use xlink:href="#a6tyb15qEV" opacity="1" fill="#79629c" fill-opacity="1"></use>
               <g>
                  <use xlink:href="#a6tyb15qEV" opacity="1" fill-opacity="0" stroke="#000000" stroke-width="3" stroke-opacity="1"></use>
               </g>
            </g>
            <g>
               <use xlink:href="#b6yNACUbK" opacity="1" fill="#000000" fill-opacity="1"></use>
            </g>
            <g>
               <use xlink:href="#apMLQJDah" opacity="1" fill="#000000" fill-opacity="1"></use>
            </g>
            <g>
               <use xlink:href="#b2kOlh6k0H" opacity="1" fill="#000000" fill-opacity="1"></use>
            </g>
            <g>
               <use xlink:href="#c3beMC9jlK" opacity="1" fill="#000000" fill-opacity="1"></use>
            </g>
            <g>
               <use xlink:href="#beAOYSmbP" opacity="1" fill="#000000" fill-opacity="1"></use>
            </g>
            <g>
               <use xlink:href="#alnPv5xI2" opacity="1" fill="#000000" fill-opacity="1"></use>
            </g>
         </g>
         <g>
            <g>
               <use xlink:href="#a7bTZANyJ" opacity="1" fill="#67399b" fill-opacity="1"></use>
               <g>
                  <use xlink:href="#a7bTZANyJ" opacity="1" fill-opacity="0" stroke="#000000" stroke-width="3" stroke-opacity="1"></use>
               </g>
            </g>
            <g>
               <use xlink:href="#b7bsVwq7R" opacity="1" fill="#67399b" fill-opacity="1"></use>
               <g>
                  <use xlink:href="#b7bsVwq7R" opacity="1" fill-opacity="0" stroke="#000000" stroke-width="3" stroke-opacity="1"></use>
               </g>
            </g>
         </g>
      </g>
   </g>
</svg>