<?xml version="1.0" encoding="UTF-8" standalone="no"?>
<!DOCTYPE svg PUBLIC "-//W3C//DTD SVG 1.1//EN" "http://www.w3.org/Graphics/SVG/1.1/DTD/svg11.dtd">
<svg version="1.1" xmlns="http://www.w3.org/2000/svg" xmlns:xlink="http://www.w3.org/1999/xlink" preserveAspectRatio="xMidYMid meet" viewBox="90.43605129937133 81.15517006033794 497.970417168105 443.03482993966236" width="497.97" height="443.03">
   <defs>
      <path d="M440.91 187.04L444.18 187.35L447.45 187.78L450.73 188.34L454.02 189.04L457.3 189.86L460.56 190.8L463.74 191.86L466.86 193.02L469.91 194.29L472.89 195.67L475.79 197.14L478.62 198.71L481.37 200.38L484.04 202.14L486.62 203.98L489.13 205.91L491.55 207.92L493.88 210.01L496.12 212.17L498.27 214.41L500.33 216.72L502.3 219.09L504.16 221.52L505.93 224.02L507.6 226.57L509.16 229.18L510.62 231.84L511.97 234.54L513.22 237.29L514.35 240.09L515.37 242.92L516.28 245.78L516.65 247.15L519.87 247.7L523.15 248.39L526.44 249.21L529.69 250.16L532.88 251.21L536 252.38L539.05 253.65L542.02 255.02L544.93 256.5L547.75 258.07L550.5 259.74L553.17 261.49L555.76 263.34L558.26 265.27L560.68 267.28L563.02 269.36L565.26 271.53L567.41 273.77L569.47 276.07L571.43 278.44L573.3 280.88L575.06 283.38L576.73 285.93L578.29 288.54L579.75 291.19L581.11 293.9L582.35 296.65L583.49 299.44L584.51 302.27L585.41 305.14L586.21 308.04L586.88 310.97L587.43 313.92L587.86 316.9L588.17 319.9L588.35 322.92L588.41 325.95L588.33 328.99L588.12 332.04L587.78 335.09L587.31 338.15L586.69 341.2L585.94 344.25L585.06 347.26L584.05 350.21L582.92 353.09L581.68 355.9L580.33 358.64L578.86 361.31L577.29 363.9L575.62 366.41L573.84 368.85L571.97 371.21L570 373.48L567.95 375.67L565.81 377.78L563.58 379.8L561.27 381.74L558.89 383.58L556.43 385.33L553.9 386.99L551.3 388.55L548.64 390.01L545.91 391.38L543.13 392.65L540.29 393.82L537.4 394.88L534.46 395.84L531.48 396.69L528.45 397.43L525.38 398.06L522.28 398.58L519.15 398.99L515.98 399.28L512.79 399.45L509.58 399.51L506.34 399.44L503.09 399.26L499.83 398.95L496.55 398.51L496.54 398.51L478.15 466.65L477.71 468.17L477.21 469.66L476.65 471.12L476.04 472.54L475.38 473.93L474.66 475.28L473.9 476.6L473.09 477.88L472.23 479.12L471.33 480.32L470.39 481.48L469.4 482.6L468.37 483.68L467.31 484.71L466.21 485.7L465.07 486.65L463.89 487.55L462.69 488.4L461.45 489.21L460.19 489.97L458.89 490.68L457.57 491.35L456.23 491.96L454.86 492.52L453.47 493.02L452.06 493.48L450.63 493.88L449.18 494.22L447.71 494.51L446.24 494.75L444.75 494.92L443.24 495.04L441.73 495.09L440.21 495.09L438.68 495.03L437.15 494.9L435.61 494.71L434.07 494.46L432.53 494.14L430.99 493.76L327.12 465.72L325.6 465.28L324.11 464.78L322.65 464.22L321.23 463.61L319.84 462.95L318.49 462.24L317.17 461.47L315.9 460.66L314.66 459.81L313.46 458.9L312.29 457.96L311.18 456.97L310.1 455.95L309.06 454.88L308.07 453.78L307.12 452.64L306.22 451.47L305.37 450.26L304.56 449.03L303.8 447.76L303.09 446.47L302.43 445.15L301.82 443.8L301.26 442.43L300.75 441.04L300.29 439.63L299.89 438.2L299.55 436.75L299.26 435.29L299.03 433.81L298.85 432.32L298.74 430.82L298.68 429.3L298.68 427.78L298.75 426.26L298.87 424.72L299.06 423.19L299.31 421.65L299.63 420.11L300.01 418.57L318.4 350.43L318.39 350.43L315.35 349.15L312.37 347.78L309.47 346.3L306.64 344.73L303.89 343.07L301.22 341.31L298.63 339.47L296.13 337.54L293.71 335.53L291.38 333.44L289.13 331.27L286.98 329.04L284.92 326.73L282.96 324.36L281.1 321.92L279.33 319.43L277.66 316.87L276.1 314.27L274.64 311.61L273.29 308.9L272.04 306.15L270.91 303.36L269.89 300.53L268.98 297.66L268.19 294.76L267.51 291.83L266.96 288.88L266.53 285.9L266.22 282.9L266.04 279.89L265.99 276.86L266.06 273.82L266.27 270.77L266.61 267.71L267.08 264.66L267.7 261.6L268.45 258.55L269.33 255.54L270.34 252.59L271.47 249.71L272.71 246.9L274.07 244.16L275.53 241.49L277.1 238.9L278.78 236.39L280.55 233.95L282.42 231.6L284.39 229.32L286.44 227.13L288.59 225.02L290.81 223L293.12 221.07L295.5 219.22L297.96 217.47L300.49 215.82L303.09 214.25L305.76 212.79L308.48 211.42L311.26 210.15L314.1 208.99L316.99 207.92L319.93 206.97L322.92 206.12L325.94 205.37L329.01 204.74L332.11 204.22L335.25 203.82L338.41 203.52L341.6 203.35L344.82 203.29L348.05 203.36L351.3 203.54L354.56 203.85L357.84 204.29L361.12 204.85L364.41 205.54L367.69 206.36L370.95 207.31L374.13 208.36L377.19 209.51L378.2 208.51L380.42 206.49L382.73 204.56L385.12 202.72L387.57 200.97L390.11 199.31L392.7 197.75L395.37 196.28L398.09 194.91L400.88 193.65L403.71 192.48L406.6 191.42L409.54 190.46L412.53 189.61L415.55 188.87L418.62 188.24L421.72 187.72L424.86 187.31L428.02 187.02L431.21 186.84L434.43 186.79L437.66 186.85L440.91 187.04Z" id="a2Ceoi4ES5"></path>
      <clipPath id="clipeDhopcZNG">
         <use xlink:href="#a2Ceoi4ES5" opacity="1"></use>
      </clipPath>
      <path d="M347.68 226.49L350.17 226.64L350.19 226.64L348.91 226.72L345.73 226.99L342.59 227.33L339.49 227.75L336.44 228.23L333.43 228.79L330.48 229.41L327.59 230.1L324.75 230.85L321.97 231.67L319.25 232.54L316.6 233.48L314.01 234.48L311.5 235.53L309.05 236.64L306.68 237.8L304.39 239.01L302.18 240.27L300.05 241.58L298.01 242.94L296.05 244.35L294.19 245.8L292.42 247.29L290.74 248.83L289.16 250.4L287.69 252.02L286.31 253.67L285.04 255.35L283.88 257.07L282.84 258.82L281.9 260.61L281.08 262.42L280.97 262.73L281 261.71L281.15 260.21L281.41 258.72L281.76 257.25L282.2 255.81L282.74 254.38L283.37 252.97L284.1 251.58L284.9 250.22L285.8 248.89L286.78 247.58L287.84 246.3L288.98 245.04L290.2 243.82L291.49 242.63L292.86 241.47L294.29 240.34L295.8 239.25L297.38 238.19L299.02 237.17L300.73 236.19L302.5 235.25L304.33 234.34L306.21 233.48L308.15 232.67L310.15 231.89L312.2 231.17L314.29 230.49L316.44 229.85L318.63 229.27L320.86 228.73L323.14 228.25L325.46 227.82L327.81 227.44L330.2 227.12L332.63 226.85L335.09 226.64L337.57 226.49L340.09 226.4L342.63 226.37L345.17 226.4L347.68 226.49Z" id="d7ddav7Vja"></path>
      <path d="M533.78 276.65L536 278.15L538.2 279.73L540.34 281.38L542.4 283.08L544.4 284.83L546.32 286.63L548.16 288.47L549.93 290.35L551.62 292.27L553.23 294.23L554.77 296.22L556.22 298.25L557.6 300.3L558.89 302.38L560.11 304.48L561.24 306.6L562.29 308.74L563.26 310.89L564.15 313.06L564.95 315.24L565.66 317.43L566.29 319.62L566.83 321.82L567.29 324.01L567.66 326.2L567.94 328.39L568.13 330.57L568.23 332.73L568.24 334.89L568.15 337.03L567.98 339.15L567.71 341.25L567.35 343.32L566.9 345.37L566.35 347.39L565.7 349.38L564.96 351.34L564.12 353.26L563.19 355.14L562.15 356.98L561.02 358.77L560.2 359.94L560.35 359.51L561.18 356.95L561.88 354.34L562.46 351.7L562.92 349.02L563.26 346.32L563.47 343.58L563.57 340.82L563.55 338.04L563.41 335.24L563.16 332.43L562.79 329.61L562.3 326.78L561.7 323.95L560.99 321.12L560.17 318.29L559.24 315.46L558.19 312.65L557.04 309.84L555.78 307.06L554.41 304.29L552.94 301.55L551.36 298.83L549.67 296.15L547.88 293.49L545.99 290.88L544 288.3L541.91 285.77L539.71 283.28L537.42 280.84L535.03 278.46L532.54 276.13L531.52 275.24L531.54 275.25L533.78 276.65Z" id="aAQ4SzjdF"></path>
      <path d="M445.88 202.39L448.3 202.59L450.69 202.87L453.05 203.23L455.37 203.67L457.66 204.18L459.9 204.77L462.11 205.43L464.27 206.16L466.38 206.97L468.44 207.85L470.45 208.8L472.4 209.82L474.3 210.91L476.13 212.06L477.91 213.29L479.62 214.57L481.26 215.93L482.83 217.35L484.33 218.83L485.75 220.37L487.1 221.98L488.36 223.64L489.54 225.37L490.64 227.15L491.65 228.99L492.57 230.89L493.39 232.85L493.88 234.19L493.62 233.82L491.99 231.68L490.25 229.61L488.41 227.63L486.48 225.72L484.45 223.9L482.32 222.16L480.11 220.51L477.82 218.93L475.44 217.45L472.99 216.05L470.46 214.75L467.86 213.53L465.2 212.4L462.47 211.37L459.67 210.43L456.82 209.58L453.91 208.83L450.96 208.17L447.95 207.62L444.9 207.16L441.8 206.81L438.67 206.55L435.5 206.4L432.3 206.35L429.08 206.41L425.82 206.58L422.55 206.85L419.25 207.23L415.95 207.72L412.62 208.32L409.29 209.03L407.97 209.36L407.99 209.35L410.43 208.31L412.92 207.34L415.47 206.44L418.05 205.63L420.63 204.9L423.2 204.27L425.77 203.72L428.34 203.26L430.89 202.88L433.43 202.59L435.96 202.38L438.47 202.26L440.97 202.22L443.44 202.26L445.88 202.39Z" id="d2Sgouipc"></path>
      <path d="M459.49 388.29C460.45 388.61 460.97 389.64 460.66 390.59C455.59 406.06 440.96 450.73 435.89 466.2C435.57 467.16 434.54 467.68 433.58 467.37C433.24 467.25 433.93 467.48 433.58 467.37C432.63 467.05 432.1 466.02 432.42 465.06C437.49 449.6 452.12 404.93 457.19 389.46C457.5 388.5 458.54 387.98 459.49 388.29C459.84 388.41 459.15 388.18 459.49 388.29Z" id="a1NDJt9fb3"></path>
      <path d="M408.45 376.54C409.42 376.81 409.99 377.82 409.72 378.79C405.41 394.48 392.94 439.81 388.63 455.5C388.36 456.47 387.36 457.05 386.38 456.78C386.03 456.68 386.74 456.87 386.38 456.78C385.41 456.51 384.84 455.51 385.11 454.53C389.42 438.84 401.89 393.51 406.2 377.82C406.47 376.85 407.47 376.28 408.45 376.54C408.8 376.64 408.09 376.45 408.45 376.54Z" id="c1Qj2NUSpn"></path>
      <path d="M359.57 364.96C360.55 365.19 361.16 366.17 360.94 367.15C357.27 383.01 346.67 428.8 343 444.66C342.77 445.64 341.79 446.25 340.81 446.03C340.45 445.95 341.16 446.11 340.81 446.03C339.82 445.8 339.21 444.82 339.44 443.84C343.11 427.98 353.71 382.18 357.38 366.33C357.61 365.34 358.59 364.73 359.57 364.96C359.93 365.04 359.21 364.88 359.57 364.96Z" id="eqpMNr6Wo"></path>
      <path d="M141.28 81.37L143.08 81.58L144.86 81.86L146.62 82.21L148.36 82.63L150.09 83.11L151.79 83.66L153.46 84.27L155.11 84.95L156.73 85.68L158.32 86.48L159.88 87.34L161.41 88.26L162.89 89.23L164.35 90.26L165.76 91.35L167.13 92.49L168.46 93.69L169.74 94.93L170.98 96.23L172.17 97.58L173.3 98.98L174.39 100.43L175.42 101.92L176.4 103.46L177.32 105.04L178.17 106.67L178.97 108.34L179.71 110.06L180.37 111.81L180.98 113.61L181.51 115.44L181.97 117.29L182.35 119.15L182.65 121L182.81 122.3L183.32 122.15L184.94 121.75L186.56 121.41L188.18 121.14L189.8 120.94L191.41 120.8L193.02 120.72L194.62 120.71L196.21 120.76L197.79 120.87L199.36 121.04L200.91 121.27L202.45 121.55L203.97 121.9L205.47 122.3L206.95 122.75L208.41 123.27L209.85 123.83L211.26 124.45L212.64 125.12L214 125.84L215.32 126.61L216.62 127.43L217.88 128.3L219.1 129.22L220.29 130.18L221.45 131.19L222.56 132.24L223.63 133.34L224.66 134.48L225.65 135.67L226.58 136.89L227.48 138.16L228.32 139.46L229.11 140.81L229.85 142.19L230.54 143.61L231.17 145.06L231.74 146.55L232.26 148.08L232.71 149.63L233.1 151.21L233.42 152.79L233.67 154.36L233.86 155.94L233.98 157.51L234.03 159.08L234.02 160.64L233.95 162.19L233.81 163.73L233.62 165.26L233.36 166.78L233.04 168.28L232.67 169.77L232.24 171.24L231.75 172.69L231.2 174.12L230.6 175.53L229.95 176.92L229.24 178.28L228.48 179.61L227.67 180.91L226.81 182.19L225.9 183.43L224.94 184.64L223.94 185.82L222.88 186.95L221.79 188.06L220.65 189.12L219.46 190.14L218.23 191.11L216.96 192.05L215.65 192.94L214.3 193.78L212.91 194.57L211.48 195.31L210.02 196L208.52 196.64L206.98 197.22L205.41 197.74L203.81 198.21L203.63 198.25L203.8 198.65L204.2 199.8L204.55 200.98L204.84 202.18L205.07 203.38L205.24 204.58L205.34 205.78L205.39 206.98L205.37 208.18L205.3 209.37L205.17 210.56L204.99 211.73L204.75 212.9L204.46 214.06L204.11 215.21L203.71 216.35L203.26 217.47L202.76 218.57L202.21 219.66L201.61 220.73L200.97 221.78L200.28 222.81L199.54 223.81L198.76 224.79L197.93 225.74L197.06 226.67L196.15 227.57L195.21 228.44L194.22 229.27L193.19 230.08L192.12 230.84L191.02 231.58L189.88 232.27L188.71 232.93L187.5 233.55L186.26 234.12L184.99 234.65L183.68 235.14L182.35 235.58L180.99 235.98L179.61 236.32L178.24 236.61L176.87 236.84L175.5 237.02L174.14 237.15L172.78 237.22L171.44 237.24L170.11 237.21L168.78 237.13L167.48 237L166.18 236.82L164.91 236.6L163.65 236.32L162.41 236L161.2 235.64L160.01 235.23L158.84 234.77L157.7 234.27L156.58 233.73L155.5 233.15L154.44 232.53L153.42 231.86L152.43 231.16L151.48 230.42L150.57 229.63L149.69 228.82L148.85 227.96L148.06 227.07L147.31 226.14L146.6 225.18L145.94 224.19L145.33 223.16L144.76 222.1L144.25 221.01L143.79 219.89L143.39 218.73L143.04 217.55L142.75 216.36L142.52 215.16L142.35 213.96L142.25 212.75L142.2 211.56L142.22 210.36L142.29 209.17L142.42 207.98L142.6 206.8L142.84 205.63L143.13 204.47L143.48 203.32L143.88 202.19L144.33 201.07L144.83 199.96L145.38 198.88L145.98 197.81L146.62 196.76L147.31 195.73L148.05 194.73L148.83 193.75L149.66 192.79L150.53 191.87L151.43 190.97L152.38 190.1L153.37 189.26L154.4 188.46L155.47 187.69L156.57 186.96L157.71 186.26L158.88 185.61L160.09 184.99L161.28 184.44L160.54 183.47L159.65 182.2L158.81 180.9L158.01 179.55L157.27 178.17L156.59 176.75L155.96 175.3L155.38 173.81L154.87 172.28L154.41 170.72L154.33 170.37L154.2 170.42L152.45 171.09L150.66 171.7L148.82 172.23L146.97 172.69L145.12 173.07L143.26 173.37L141.41 173.6L139.57 173.75L137.73 173.82L135.89 173.83L134.07 173.76L132.26 173.61L130.47 173.4L128.69 173.12L126.92 172.77L125.18 172.35L123.46 171.87L121.76 171.32L120.08 170.71L118.43 170.03L116.81 169.3L115.22 168.5L113.66 167.64L112.14 166.72L110.65 165.75L109.2 164.72L107.78 163.63L106.41 162.49L105.08 161.29L103.8 160.05L102.56 158.75L101.38 157.4L100.24 156L99.15 154.56L98.12 153.06L97.15 151.52L96.23 149.94L95.37 148.31L94.57 146.64L93.84 144.92L93.17 143.17L92.57 141.37L92.03 139.54L91.57 137.69L91.19 135.83L90.89 133.98L90.66 132.13L90.51 130.28L90.44 128.44L90.44 126.61L90.51 124.79L90.65 122.98L90.86 121.19L91.14 119.41L91.49 117.64L91.91 115.9L92.39 114.18L92.94 112.48L93.55 110.8L94.23 109.15L94.97 107.53L95.76 105.94L96.62 104.38L97.54 102.86L98.51 101.37L99.54 99.92L100.63 98.5L101.77 97.13L102.97 95.8L104.21 94.52L105.51 93.28L106.86 92.1L108.26 90.96L109.71 89.87L111.2 88.84L112.74 87.86L114.32 86.95L115.95 86.09L117.62 85.29L119.34 84.56L121.09 83.89L122.89 83.28L124.72 82.75L126.57 82.29L128.43 81.91L130.28 81.61L132.13 81.38L133.98 81.23L135.82 81.16L137.65 81.16L139.47 81.23L141.28 81.37Z" id="n1d7BnQktl"></path>
      <clipPath id="clipfnKhUpc5t">
         <use xlink:href="#n1d7BnQktl" opacity="1"></use>
      </clipPath>
      <path d="M239.68 201.09L240.16 201.38L240.63 201.69L241.09 202.01L241.54 202.36L241.97 202.72L242.39 203.1L242.79 203.49L243.18 203.9L243.55 204.32L243.91 204.76L244.25 205.21L244.57 205.68L244.88 206.16L245.17 206.66L245.44 207.16L245.69 207.68L245.92 208.21L246.13 208.76L246.32 209.31L246.48 209.88L246.63 210.45L246.75 211.04L246.85 211.64L246.93 212.23L246.98 212.83L247.01 213.43L247.01 214.01L246.99 214.6L246.95 215.18L246.88 215.76L246.79 216.33L246.68 216.89L246.55 217.45L246.4 218L246.22 218.54L246.03 219.07L245.81 219.59L245.58 220.11L245.33 220.61L245.05 221.1L244.76 221.59L244.45 222.06L244.13 222.51L243.78 222.96L243.42 223.39L243.04 223.81L242.65 224.21L242.24 224.6L241.82 224.98L241.38 225.33L240.93 225.67L240.46 226L239.98 226.3L239.48 226.59L238.98 226.86L238.46 227.11L237.93 227.34L237.82 227.38L237.95 227.81L238.2 228.8L238.41 229.8L238.59 230.82L249.12 301.94L252.97 303.18L257.1 304.69L261.16 306.35L265.14 308.17L269.05 310.14L272.87 312.25L276.61 314.51L280.25 316.9L283.8 319.43L287.26 322.1L290.6 324.89L293.85 327.81L296.98 330.86L299.99 334.03L302.88 337.31L305.65 340.71L308.3 344.23L310.81 347.85L313.18 351.58L315.41 355.41L317.5 359.33L319.44 363.36L321.22 367.48L322.85 371.69L324.32 375.98L325.62 380.36L326.75 384.83L327.71 389.37L328.49 393.98L329.08 398.62L329.48 403.24L329.69 407.84L329.71 412.41L329.56 416.95L329.22 421.45L328.7 425.91L328.01 430.32L327.16 434.69L326.13 439L324.94 443.25L323.59 447.45L322.07 451.58L320.41 455.63L318.59 459.62L316.63 463.52L314.51 467.35L312.26 471.08L309.86 474.73L307.33 478.28L304.67 481.73L301.87 485.08L298.95 488.32L295.9 491.45L292.74 494.47L289.45 497.36L286.05 500.13L282.54 502.77L278.91 505.28L275.19 507.66L271.36 509.89L267.43 511.98L263.4 513.91L259.28 515.7L255.08 517.33L250.78 518.79L246.4 520.1L241.94 521.23L237.4 522.18L232.78 522.96L228.14 523.56L223.52 523.96L218.92 524.17L214.35 524.19L209.82 524.03L205.32 523.69L200.86 523.18L196.44 522.49L192.08 521.63L187.76 520.6L183.51 519.41L179.31 518.06L175.19 516.55L171.13 514.88L167.15 513.07L163.24 511.1L159.42 508.99L155.68 506.73L152.03 504.34L148.48 501.81L145.03 499.14L141.68 496.35L138.44 493.42L135.31 490.38L132.3 487.21L129.4 483.92L126.63 480.52L123.99 477.01L121.48 473.39L119.11 469.66L116.88 465.83L114.79 461.9L112.85 457.88L111.06 453.76L109.44 449.55L107.97 445.25L106.67 440.87L105.54 436.41L104.58 431.87L103.8 427.26L103.21 422.62L102.81 418L102.6 413.4L102.57 408.83L102.73 404.29L103.07 399.79L103.58 395.33L104.27 390.92L105.13 386.55L106.16 382.24L107.35 377.98L108.7 373.79L110.21 369.66L111.88 365.6L113.7 361.62L115.66 357.72L117.77 353.89L120.03 350.16L122.42 346.51L124.96 342.96L127.62 339.51L130.42 336.16L133.34 332.92L136.38 329.79L139.55 326.77L142.84 323.88L146.24 321.11L149.75 318.47L153.08 316.16L142.55 245.05L142.42 244.02L142.33 243L142.28 241.98L142.28 241.53L142.17 241.52L141.59 241.46L141.02 241.37L140.46 241.26L139.91 241.13L139.36 240.97L138.81 240.8L138.28 240.6L137.76 240.39L137.24 240.15L136.74 239.9L136.25 239.63L135.77 239.34L135.3 239.03L134.84 238.7L134.39 238.36L133.96 238L133.54 237.62L133.14 237.23L132.75 236.82L132.38 236.39L132.02 235.96L131.68 235.5L131.35 235.04L131.05 234.55L130.76 234.06L130.49 233.55L130.24 233.03L130.01 232.5L129.8 231.96L129.61 231.4L129.44 230.84L129.3 230.26L129.17 229.68L129.07 229.08L129 228.48L128.95 227.88L128.92 227.29L128.91 226.7L128.93 226.12L128.98 225.53L129.04 224.96L129.13 224.39L129.24 223.83L129.38 223.27L129.53 222.72L129.7 222.18L129.9 221.65L130.11 221.12L130.35 220.61L130.6 220.11L130.87 219.61L131.17 219.13L131.47 218.66L131.8 218.2L132.14 217.76L132.51 217.32L132.88 216.91L133.28 216.5L133.53 216.26L134.99 216.23L137.03 216.18L139.14 216.1L141.32 216L143.57 215.89L145.88 215.75L148.25 215.59L150.69 215.42L153.17 215.22L155.72 215L158.31 214.76L160.96 214.5L163.65 214.23L166.39 213.93L169.17 213.61L171.99 213.28L174.85 212.92L177.75 212.54L180.68 212.15L183.63 211.73L186.62 211.3L189.61 210.85L192.56 210.39L195.47 209.92L198.35 209.44L201.19 208.95L203.99 208.46L206.75 207.95L209.45 207.44L212.11 206.93L214.72 206.41L217.27 205.88L219.77 205.35L222.21 204.82L224.59 204.29L226.91 203.75L229.16 203.21L231.34 202.67L233.46 202.13L235.5 201.59L237.47 201.05L238.87 200.66L239.19 200.82L239.68 201.09ZM188.19 422.28L186.85 422.39L185.51 422.56L184.17 422.79L182.86 423.07L181.57 423.39L180.3 423.77L179.06 424.19L177.84 424.66L176.65 425.18L175.49 425.73L174.36 426.34L173.25 426.98L172.18 427.66L171.14 428.38L170.13 429.14L169.16 429.94L168.21 430.77L167.31 431.63L166.44 432.53L165.6 433.46L164.81 434.42L164.05 435.41L163.34 436.43L162.66 437.47L162.03 438.54L161.44 439.63L160.89 440.74L160.39 441.88L159.93 443.04L159.52 444.21L159.16 445.41L158.85 446.62L158.58 447.85L158.37 449.09L158.21 450.34L158.1 451.61L158.04 452.88L158.03 454.17L158.09 455.46L158.19 456.76L158.36 458.06L158.58 459.36L158.85 460.64L159.18 461.89L159.55 463.12L159.98 464.32L160.45 465.5L160.97 466.66L161.54 467.78L162.14 468.88L162.8 469.95L163.49 470.98L164.22 471.99L164.99 472.97L165.8 473.91L166.65 474.82L167.53 475.69L168.45 476.53L169.4 477.33L170.38 478.1L171.39 478.82L172.43 479.51L173.49 480.16L174.58 480.77L175.7 481.33L176.84 481.86L178.01 482.33L179.2 482.77L180.4 483.16L181.63 483.5L182.87 483.79L184.13 484.04L185.4 484.24L186.69 484.39L187.99 484.48L189.3 484.53L190.62 484.52L191.95 484.46L193.29 484.34L194.63 484.17L195.97 483.95L197.28 483.67L198.57 483.34L199.84 482.97L201.08 482.54L202.3 482.08L203.49 481.56L204.65 481L205.78 480.4L206.88 479.76L207.96 479.08L209 478.35L210.01 477.59L210.98 476.8L211.93 475.97L212.83 475.1L213.7 474.2L214.54 473.28L215.33 472.32L216.09 471.33L216.8 470.31L217.48 469.27L218.11 468.2L218.7 467.11L219.25 465.99L219.75 464.86L220.21 463.7L220.62 462.52L220.98 461.33L221.29 460.12L221.56 458.89L221.77 457.65L221.93 456.4L222.04 455.13L222.1 453.85L222.1 452.57L222.05 451.28L221.94 449.98L221.78 448.67L221.56 447.37L221.29 446.1L220.96 444.85L220.59 443.62L220.16 442.41L219.69 441.23L219.17 440.08L218.6 438.96L218 437.86L217.34 436.79L216.65 435.75L215.92 434.75L215.15 433.77L214.34 432.83L213.49 431.92L212.61 431.04L211.69 430.21L210.74 429.4L209.76 428.64L208.75 427.91L207.71 427.22L206.65 426.58L205.56 425.97L204.44 425.4L203.29 424.88L202.13 424.4L200.94 423.97L199.74 423.58L198.51 423.24L197.27 422.94L196.01 422.7L194.74 422.5L193.45 422.35L192.15 422.25L190.84 422.21L189.52 422.22L188.19 422.28Z" id="b1wXTqUa8S"></path>
      <clipPath id="clipd8isP0uawM">
         <use xlink:href="#b1wXTqUa8S" opacity="1"></use>
      </clipPath>
   </defs>
   <g>
      <g>
         <g>
            <use xlink:href="#a2Ceoi4ES5" opacity="1" fill="#79629c" fill-opacity="1"></use>
            <g clip-path="url(#clipeDhopcZNG)">
               <use xlink:href="#a2Ceoi4ES5" opacity="1" fill-opacity="0" stroke="#000000" stroke-width="6" stroke-opacity="1"></use>
            </g>
         </g>
         <g>
            <g>
               <use xlink:href="#d7ddav7Vja" opacity="1" fill="#000000" fill-opacity="1"></use>
            </g>
            <g>
               <use xlink:href="#aAQ4SzjdF" opacity="1" fill="#000000" fill-opacity="1"></use>
            </g>
            <g>
               <use xlink:href="#d2Sgouipc" opacity="1" fill="#000000" fill-opacity="1"></use>
            </g>
            <g>
               <use xlink:href="#a1NDJt9fb3" opacity="1" fill="#000000" fill-opacity="1"></use>
            </g>
            <g>
               <use xlink:href="#c1Qj2NUSpn" opacity="1" fill="#000000" fill-opacity="1"></use>
            </g>
            <g>
               <use xlink:href="#eqpMNr6Wo" opacity="1" fill="#000000" fill-opacity="1"></use>
            </g>
         </g>
      </g>
      <g>
         <g>
            <use xlink:href="#n1d7BnQktl" opacity="1" fill="#67399b" fill-opacity="1"></use>
            <g clip-path="url(#clipfnKhUpc5t)">
               <use xlink:href="#n1d7BnQktl" opacity="1" fill-opacity="0" stroke="#000000" stroke-width="6" stroke-opacity="1"></use>
            </g>
         </g>
         <g>
            <use xlink:href="#b1wXTqUa8S" opacity="1" fill="#67399b" fill-opacity="1"></use>
            <g clip-path="url(#clipd8isP0uawM)">
               <use xlink:href="#b1wXTqUa8S" opacity="1" fill-opacity="0" stroke="#000000" stroke-width="6" stroke-opacity="1"></use>
            </g>
         </g>
      </g>
   </g>
</svg>